M48
; DRILL file {KiCad (5.1.6)-1} date 01/04/21 09:58:59
; FORMAT={-:-/ absolute / inch / decimal}
; #@! TF.CreationDate,2021-01-04T09:58:59-07:00
; #@! TF.GenerationSoftware,Kicad,Pcbnew,(5.1.6)-1
; #@! TF.FileFunction,Plated,1,2,PTH
FMAT,2
INCH
T1C0.0157
T2C0.0394
T3C0.0512
T4C0.0520
%
G90
G05
T1
X5.124Y-2.862
X5.126Y-2.698
X5.128Y-1.982
X5.128Y-2.338
X5.128Y-2.52
X5.132Y-1.158
X5.132Y-2.142
X5.136Y-1.376
X5.136Y-1.82
X5.138Y-0.976
X5.142Y-1.618
X5.178Y-3.242
X5.184Y-0.846
X5.312Y-2.702
X5.336Y-0.844
X5.366Y-1.83
X5.458Y-2.704
X5.486Y-0.848
X5.566Y-1.838
X5.598Y-3.034
X5.598Y-3.148
X5.598Y-3.262
X5.62Y-2.038
X5.632Y-2.7
X5.666Y-1.534
X5.732Y-1.848
X5.74Y-2.22
X5.76Y-1.96
X5.77Y-2.1
X5.778Y-2.698
X5.786Y-3.276
X5.788Y-1.278
X5.796Y-1.44
X5.83Y-2.1
X5.86Y-1.97
X5.86Y-2.16
X5.906Y-1.33
X5.908Y-3.152
X5.908Y-3.244
X5.952Y-2.704
X6.01Y-2.26
X6.01Y-2.32
X6.02Y-1.06
X6.04Y-2.22
X6.04Y-2.36
X6.09Y-2.74
X6.1Y-2.22
X6.1Y-2.3
X6.11Y-2.37
X6.16Y-2.1
X6.16Y-3.23
X6.192Y-0.858
X6.25Y-2.88
X6.26Y-3.2
X6.2602Y-2.3402
X6.312Y-0.858
X6.35Y-2.41
X6.38Y-3.27
X6.4Y-0.856
X6.47Y-2.64
X6.49Y-0.982
X6.496Y-0.86
X6.5Y-2.21
X6.526Y-2.776
X6.56Y-1.7
X6.56Y-1.82
X6.586Y-1.068
X6.6Y-2.21
X6.61Y-0.858
X6.636Y-2.724
X6.64Y-2.04
X6.64Y-2.14
X6.724Y-0.858
X6.725Y-2.475
X6.756Y-1.084
X6.78Y-3.19
X6.805Y-2.475
X6.81Y-2.85
X6.81Y-2.96
X6.82Y-2.6
X6.82Y-2.73
X6.832Y-0.856
X6.89Y-1.306
X6.892Y-1.106
X6.9Y-2.83
X6.94Y-2.475
X6.942Y-0.856
X6.946Y-1.4
X6.975Y-2.315
X6.98Y-2.214
X6.98Y-2.74
X6.99Y-2.6
X7.008Y-2.15
X7.04Y-2.92
X7.064Y-0.856
X7.064Y-0.95
X7.064Y-1.048
X7.065Y-2.46
X7.08Y-2.355
X7.08Y-2.97
X7.08Y-3.04
X7.08Y-3.1
X7.1Y-2.6
X7.11Y-1.396
X7.112Y-1.326
X7.13Y-2.87
X7.17Y-2.395
X7.18Y-1.552
X7.18Y-1.652
X7.222Y-1.734
X7.27Y-2.42
X7.3Y-2.63
X7.31Y-2.96
X7.34Y-2.76
X7.35Y-2.64
X7.35Y-2.82
X7.3602Y-3.0698
X7.38Y-1.85
X7.38Y-2.79
X7.4Y-2.24
X7.4033Y-2.132
X7.42Y-2.64
X7.42Y-2.83
X7.43Y-2.5
X7.43Y-3.1
X7.432Y-1.196
X7.47Y-2.24
X7.48Y-2.83
X7.486Y-1.298
X7.49Y-2.69
X7.49Y-2.96
X7.5Y-2.2
X7.5Y-2.73
X7.53Y-2.98
X7.57Y-3.06
X7.59Y-2.89
X7.616Y-3.288
X7.63Y-2.5
X7.67Y-2.8
X7.68Y-2.68
X7.7Y-2.86
X7.7Y-3.0885
X7.728Y-0.876
X7.754Y-3.288
X7.77Y-2.65
X7.77Y-2.8
X7.842Y-0.88
X7.858Y-3.288
X7.86Y-1.61
X7.86Y-1.87
X7.87Y-2.61
X7.94Y-2.61
X7.946Y-0.88
X7.972Y-3.288
X8.0Y-1.4715
X8.0391Y-1.3191
X8.048Y-0.88
X8.06Y-1.48
X8.094Y-3.288
X8.128Y-2.704
X8.132Y-2.074
X8.132Y-2.188
X8.132Y-2.316
X8.132Y-2.43
X8.132Y-2.564
X8.132Y-2.83
X8.132Y-2.978
X8.132Y-3.1
X8.132Y-3.206
X8.134Y-1.97
X8.136Y-1.054
X8.136Y-1.176
X8.136Y-1.748
X8.136Y-1.86
X8.138Y-1.452
X8.138Y-1.592
X8.14Y-0.94
X8.142Y-1.296
T2
X7.85Y-2.33
X7.85Y-2.43
X7.69Y-2.33
X7.69Y-2.43
X7.39Y-3.18
X7.49Y-3.18
X7.59Y-3.18
X7.69Y-3.18
X7.79Y-3.18
X7.89Y-3.18
X7.99Y-3.18
X7.79Y-2.89
X7.79Y-2.99
X7.89Y-2.89
X7.89Y-2.99
X7.99Y-2.89
X7.99Y-2.99
X7.66Y-2.11
X7.76Y-2.11
T3
X5.8909Y-1.0638
X5.8909Y-1.5362
X6.3713Y-1.0638
X6.3713Y-1.5362
X6.45Y-1.3
X5.8909Y-1.8138
X5.8909Y-2.2862
X6.3713Y-1.8138
X6.3713Y-2.2862
X6.45Y-2.05
T4
X5.26Y-1.96
X5.26Y-2.16
X5.26Y-2.36
X5.26Y-2.56
X5.46Y-1.96
X5.46Y-2.16
X5.46Y-2.36
X5.46Y-2.56
X5.242Y-2.83
X5.242Y-3.03
X5.442Y-2.83
X5.442Y-3.03
X5.25Y-1.5
X5.25Y-1.7
X5.45Y-1.5
X5.45Y-1.7
X5.25Y-1.05
X5.25Y-1.25
X5.45Y-1.05
X5.45Y-1.25
T0
M30
