%TF.GenerationSoftware,KiCad,Pcbnew,(5.1.6)-1*%
%TF.CreationDate,2021-01-04T09:58:51-07:00*%
%TF.ProjectId,R107 AC Controller,52313037-2041-4432-9043-6f6e74726f6c,rev?*%
%TF.SameCoordinates,Original*%
%TF.FileFunction,Legend,Top*%
%TF.FilePolarity,Positive*%
%FSLAX46Y46*%
G04 Gerber Fmt 4.6, Leading zero omitted, Abs format (unit mm)*
G04 Created by KiCad (PCBNEW (5.1.6)-1) date 2021-01-04 09:58:51*
%MOMM*%
%LPD*%
G01*
G04 APERTURE LIST*
%ADD10C,0.150000*%
%ADD11C,0.120000*%
G04 APERTURE END LIST*
D10*
X193800361Y-62470990D02*
X193847980Y-62328133D01*
X193847980Y-62090038D01*
X193800361Y-61994800D01*
X193752742Y-61947180D01*
X193657504Y-61899561D01*
X193562266Y-61899561D01*
X193467028Y-61947180D01*
X193419409Y-61994800D01*
X193371790Y-62090038D01*
X193324171Y-62280514D01*
X193276552Y-62375752D01*
X193228933Y-62423371D01*
X193133695Y-62470990D01*
X193038457Y-62470990D01*
X192943219Y-62423371D01*
X192895600Y-62375752D01*
X192847980Y-62280514D01*
X192847980Y-62042419D01*
X192895600Y-61899561D01*
X192847980Y-61613847D02*
X192847980Y-61042419D01*
X193847980Y-61328133D02*
X192847980Y-61328133D01*
X193562266Y-60756704D02*
X193562266Y-60280514D01*
X193847980Y-60851942D02*
X192847980Y-60518609D01*
X193847980Y-60185276D01*
X192847980Y-59994800D02*
X192847980Y-59423371D01*
X193847980Y-59709085D02*
X192847980Y-59709085D01*
X192847980Y-59090038D02*
X193657504Y-59090038D01*
X193752742Y-59042419D01*
X193800361Y-58994800D01*
X193847980Y-58899561D01*
X193847980Y-58709085D01*
X193800361Y-58613847D01*
X193752742Y-58566228D01*
X193657504Y-58518609D01*
X192847980Y-58518609D01*
X193800361Y-58090038D02*
X193847980Y-57947180D01*
X193847980Y-57709085D01*
X193800361Y-57613847D01*
X193752742Y-57566228D01*
X193657504Y-57518609D01*
X193562266Y-57518609D01*
X193467028Y-57566228D01*
X193419409Y-57613847D01*
X193371790Y-57709085D01*
X193324171Y-57899561D01*
X193276552Y-57994800D01*
X193228933Y-58042419D01*
X193133695Y-58090038D01*
X193038457Y-58090038D01*
X192943219Y-58042419D01*
X192895600Y-57994800D01*
X192847980Y-57899561D01*
X192847980Y-57661466D01*
X192895600Y-57518609D01*
X204605380Y-70212976D02*
X204129190Y-70546309D01*
X204605380Y-70784404D02*
X203605380Y-70784404D01*
X203605380Y-70403452D01*
X203653000Y-70308214D01*
X203700619Y-70260595D01*
X203795857Y-70212976D01*
X203938714Y-70212976D01*
X204033952Y-70260595D01*
X204081571Y-70308214D01*
X204129190Y-70403452D01*
X204129190Y-70784404D01*
X204605380Y-69260595D02*
X204605380Y-69832023D01*
X204605380Y-69546309D02*
X203605380Y-69546309D01*
X203748238Y-69641547D01*
X203843476Y-69736785D01*
X203891095Y-69832023D01*
X203605380Y-68641547D02*
X203605380Y-68546309D01*
X203653000Y-68451071D01*
X203700619Y-68403452D01*
X203795857Y-68355833D01*
X203986333Y-68308214D01*
X204224428Y-68308214D01*
X204414904Y-68355833D01*
X204510142Y-68403452D01*
X204557761Y-68451071D01*
X204605380Y-68546309D01*
X204605380Y-68641547D01*
X204557761Y-68736785D01*
X204510142Y-68784404D01*
X204414904Y-68832023D01*
X204224428Y-68879642D01*
X203986333Y-68879642D01*
X203795857Y-68832023D01*
X203700619Y-68784404D01*
X203653000Y-68736785D01*
X203605380Y-68641547D01*
X203605380Y-67974880D02*
X203605380Y-67308214D01*
X204605380Y-67736785D01*
X203557761Y-66212976D02*
X204843476Y-67070119D01*
X204510142Y-65308214D02*
X204557761Y-65355833D01*
X204605380Y-65498690D01*
X204605380Y-65593928D01*
X204557761Y-65736785D01*
X204462523Y-65832023D01*
X204367285Y-65879642D01*
X204176809Y-65927261D01*
X204033952Y-65927261D01*
X203843476Y-65879642D01*
X203748238Y-65832023D01*
X203653000Y-65736785D01*
X203605380Y-65593928D01*
X203605380Y-65498690D01*
X203653000Y-65355833D01*
X203700619Y-65308214D01*
X204605380Y-64355833D02*
X204605380Y-64927261D01*
X204605380Y-64641547D02*
X203605380Y-64641547D01*
X203748238Y-64736785D01*
X203843476Y-64832023D01*
X203891095Y-64927261D01*
X203605380Y-63736785D02*
X203605380Y-63641547D01*
X203653000Y-63546309D01*
X203700619Y-63498690D01*
X203795857Y-63451071D01*
X203986333Y-63403452D01*
X204224428Y-63403452D01*
X204414904Y-63451071D01*
X204510142Y-63498690D01*
X204557761Y-63546309D01*
X204605380Y-63641547D01*
X204605380Y-63736785D01*
X204557761Y-63832023D01*
X204510142Y-63879642D01*
X204414904Y-63927261D01*
X204224428Y-63974880D01*
X203986333Y-63974880D01*
X203795857Y-63927261D01*
X203700619Y-63879642D01*
X203653000Y-63832023D01*
X203605380Y-63736785D01*
X203605380Y-63070119D02*
X203605380Y-62403452D01*
X204605380Y-62832023D01*
X204319666Y-61308214D02*
X204319666Y-60832023D01*
X204605380Y-61403452D02*
X203605380Y-61070119D01*
X204605380Y-60736785D01*
X204510142Y-59832023D02*
X204557761Y-59879642D01*
X204605380Y-60022500D01*
X204605380Y-60117738D01*
X204557761Y-60260595D01*
X204462523Y-60355833D01*
X204367285Y-60403452D01*
X204176809Y-60451071D01*
X204033952Y-60451071D01*
X203843476Y-60403452D01*
X203748238Y-60355833D01*
X203653000Y-60260595D01*
X203605380Y-60117738D01*
X203605380Y-60022500D01*
X203653000Y-59879642D01*
X203700619Y-59832023D01*
X204510142Y-58070119D02*
X204557761Y-58117738D01*
X204605380Y-58260595D01*
X204605380Y-58355833D01*
X204557761Y-58498690D01*
X204462523Y-58593928D01*
X204367285Y-58641547D01*
X204176809Y-58689166D01*
X204033952Y-58689166D01*
X203843476Y-58641547D01*
X203748238Y-58593928D01*
X203653000Y-58498690D01*
X203605380Y-58355833D01*
X203605380Y-58260595D01*
X203653000Y-58117738D01*
X203700619Y-58070119D01*
X203605380Y-57451071D02*
X203605380Y-57260595D01*
X203653000Y-57165357D01*
X203748238Y-57070119D01*
X203938714Y-57022500D01*
X204272047Y-57022500D01*
X204462523Y-57070119D01*
X204557761Y-57165357D01*
X204605380Y-57260595D01*
X204605380Y-57451071D01*
X204557761Y-57546309D01*
X204462523Y-57641547D01*
X204272047Y-57689166D01*
X203938714Y-57689166D01*
X203748238Y-57641547D01*
X203653000Y-57546309D01*
X203605380Y-57451071D01*
X204605380Y-56593928D02*
X203605380Y-56593928D01*
X204605380Y-56022500D01*
X203605380Y-56022500D01*
X203605380Y-55689166D02*
X203605380Y-55117738D01*
X204605380Y-55403452D02*
X203605380Y-55403452D01*
X204605380Y-54212976D02*
X204129190Y-54546309D01*
X204605380Y-54784404D02*
X203605380Y-54784404D01*
X203605380Y-54403452D01*
X203653000Y-54308214D01*
X203700619Y-54260595D01*
X203795857Y-54212976D01*
X203938714Y-54212976D01*
X204033952Y-54260595D01*
X204081571Y-54308214D01*
X204129190Y-54403452D01*
X204129190Y-54784404D01*
X203605380Y-53593928D02*
X203605380Y-53403452D01*
X203653000Y-53308214D01*
X203748238Y-53212976D01*
X203938714Y-53165357D01*
X204272047Y-53165357D01*
X204462523Y-53212976D01*
X204557761Y-53308214D01*
X204605380Y-53403452D01*
X204605380Y-53593928D01*
X204557761Y-53689166D01*
X204462523Y-53784404D01*
X204272047Y-53832023D01*
X203938714Y-53832023D01*
X203748238Y-53784404D01*
X203653000Y-53689166D01*
X203605380Y-53593928D01*
X204605380Y-52260595D02*
X204605380Y-52736785D01*
X203605380Y-52736785D01*
X204605380Y-51451071D02*
X204605380Y-51927261D01*
X203605380Y-51927261D01*
X204081571Y-51117738D02*
X204081571Y-50784404D01*
X204605380Y-50641547D02*
X204605380Y-51117738D01*
X203605380Y-51117738D01*
X203605380Y-50641547D01*
X204605380Y-49641547D02*
X204129190Y-49974880D01*
X204605380Y-50212976D02*
X203605380Y-50212976D01*
X203605380Y-49832023D01*
X203653000Y-49736785D01*
X203700619Y-49689166D01*
X203795857Y-49641547D01*
X203938714Y-49641547D01*
X204033952Y-49689166D01*
X204081571Y-49736785D01*
X204129190Y-49832023D01*
X204129190Y-50212976D01*
X204605380Y-47879642D02*
X204129190Y-48212976D01*
X204605380Y-48451071D02*
X203605380Y-48451071D01*
X203605380Y-48070119D01*
X203653000Y-47974880D01*
X203700619Y-47927261D01*
X203795857Y-47879642D01*
X203938714Y-47879642D01*
X204033952Y-47927261D01*
X204081571Y-47974880D01*
X204129190Y-48070119D01*
X204129190Y-48451071D01*
X204081571Y-47451071D02*
X204081571Y-47117738D01*
X204605380Y-46974880D02*
X204605380Y-47451071D01*
X203605380Y-47451071D01*
X203605380Y-46974880D01*
X203605380Y-46689166D02*
X204605380Y-46355833D01*
X203605380Y-46022500D01*
X204605380Y-44403452D02*
X204605380Y-44974880D01*
X204605380Y-44689166D02*
X203605380Y-44689166D01*
X203748238Y-44784404D01*
X203843476Y-44879642D01*
X203891095Y-44974880D01*
X206636333Y-70498690D02*
X206588714Y-70546309D01*
X206445857Y-70641547D01*
X206350619Y-70689166D01*
X206207761Y-70736785D01*
X205969666Y-70784404D01*
X205779190Y-70784404D01*
X205541095Y-70736785D01*
X205398238Y-70689166D01*
X205303000Y-70641547D01*
X205160142Y-70546309D01*
X205112523Y-70498690D01*
X206160142Y-69546309D02*
X206207761Y-69593928D01*
X206255380Y-69736785D01*
X206255380Y-69832023D01*
X206207761Y-69974880D01*
X206112523Y-70070119D01*
X206017285Y-70117738D01*
X205826809Y-70165357D01*
X205683952Y-70165357D01*
X205493476Y-70117738D01*
X205398238Y-70070119D01*
X205303000Y-69974880D01*
X205255380Y-69832023D01*
X205255380Y-69736785D01*
X205303000Y-69593928D01*
X205350619Y-69546309D01*
X206636333Y-69212976D02*
X206588714Y-69165357D01*
X206445857Y-69070119D01*
X206350619Y-69022500D01*
X206207761Y-68974880D01*
X205969666Y-68927261D01*
X205779190Y-68927261D01*
X205541095Y-68974880D01*
X205398238Y-69022500D01*
X205303000Y-69070119D01*
X205160142Y-69165357D01*
X205112523Y-69212976D01*
X205969666Y-67736785D02*
X205969666Y-67260595D01*
X206255380Y-67832023D02*
X205255380Y-67498690D01*
X206255380Y-67165357D01*
X206255380Y-66832023D02*
X205255380Y-66832023D01*
X206255380Y-66260595D01*
X205255380Y-66260595D01*
X206255380Y-65784404D02*
X205255380Y-65784404D01*
X205255380Y-65546309D01*
X205303000Y-65403452D01*
X205398238Y-65308214D01*
X205493476Y-65260595D01*
X205683952Y-65212976D01*
X205826809Y-65212976D01*
X206017285Y-65260595D01*
X206112523Y-65308214D01*
X206207761Y-65403452D01*
X206255380Y-65546309D01*
X206255380Y-65784404D01*
X205779190Y-64593928D02*
X206255380Y-64593928D01*
X205255380Y-64927261D02*
X205779190Y-64593928D01*
X205255380Y-64260595D01*
X205779190Y-63308214D02*
X205731571Y-63355833D01*
X205683952Y-63451071D01*
X205683952Y-63546309D01*
X205731571Y-63641547D01*
X205779190Y-63689166D01*
X205874428Y-63736785D01*
X205969666Y-63736785D01*
X206064904Y-63689166D01*
X206112523Y-63641547D01*
X206160142Y-63546309D01*
X206160142Y-63451071D01*
X206112523Y-63355833D01*
X206064904Y-63308214D01*
X205683952Y-63308214D02*
X206064904Y-63308214D01*
X206112523Y-63260595D01*
X206112523Y-63212976D01*
X206064904Y-63117738D01*
X205969666Y-63070119D01*
X205731571Y-63070119D01*
X205588714Y-63165357D01*
X205493476Y-63308214D01*
X205445857Y-63498690D01*
X205493476Y-63689166D01*
X205588714Y-63832023D01*
X205731571Y-63927261D01*
X205922047Y-63974880D01*
X206112523Y-63927261D01*
X206255380Y-63832023D01*
X206350619Y-63689166D01*
X206398238Y-63498690D01*
X206350619Y-63308214D01*
X206255380Y-63165357D01*
X205731571Y-62308214D02*
X205779190Y-62165357D01*
X205826809Y-62117738D01*
X205922047Y-62070119D01*
X206064904Y-62070119D01*
X206160142Y-62117738D01*
X206207761Y-62165357D01*
X206255380Y-62260595D01*
X206255380Y-62641547D01*
X205255380Y-62641547D01*
X205255380Y-62308214D01*
X205303000Y-62212976D01*
X205350619Y-62165357D01*
X205445857Y-62117738D01*
X205541095Y-62117738D01*
X205636333Y-62165357D01*
X205683952Y-62212976D01*
X205731571Y-62308214D01*
X205731571Y-62641547D01*
X206255380Y-61070119D02*
X205779190Y-61403452D01*
X206255380Y-61641547D02*
X205255380Y-61641547D01*
X205255380Y-61260595D01*
X205303000Y-61165357D01*
X205350619Y-61117738D01*
X205445857Y-61070119D01*
X205588714Y-61070119D01*
X205683952Y-61117738D01*
X205731571Y-61165357D01*
X205779190Y-61260595D01*
X205779190Y-61641547D01*
X206255380Y-60641547D02*
X205255380Y-60641547D01*
X205255380Y-60308214D02*
X205255380Y-59736785D01*
X206255380Y-60022500D02*
X205255380Y-60022500D01*
X206255380Y-59403452D02*
X205255380Y-59403452D01*
X206207761Y-58974880D02*
X206255380Y-58832023D01*
X206255380Y-58593928D01*
X206207761Y-58498690D01*
X206160142Y-58451071D01*
X206064904Y-58403452D01*
X205969666Y-58403452D01*
X205874428Y-58451071D01*
X205826809Y-58498690D01*
X205779190Y-58593928D01*
X205731571Y-58784404D01*
X205683952Y-58879642D01*
X205636333Y-58927261D01*
X205541095Y-58974880D01*
X205445857Y-58974880D01*
X205350619Y-58927261D01*
X205303000Y-58879642D01*
X205255380Y-58784404D01*
X205255380Y-58546309D01*
X205303000Y-58403452D01*
X206255380Y-57974880D02*
X205255380Y-57974880D01*
X205731571Y-57974880D02*
X205731571Y-57403452D01*
X206255380Y-57403452D02*
X205255380Y-57403452D01*
X206255380Y-56927261D02*
X205255380Y-56927261D01*
X206255380Y-56451071D02*
X205255380Y-56451071D01*
X205255380Y-56212976D01*
X205303000Y-56070119D01*
X205398238Y-55974880D01*
X205493476Y-55927261D01*
X205683952Y-55879642D01*
X205826809Y-55879642D01*
X206017285Y-55927261D01*
X206112523Y-55974880D01*
X206207761Y-56070119D01*
X206255380Y-56212976D01*
X206255380Y-56451071D01*
X205731571Y-55451071D02*
X205731571Y-55117738D01*
X206255380Y-54974880D02*
X206255380Y-55451071D01*
X205255380Y-55451071D01*
X205255380Y-54974880D01*
X205969666Y-54593928D02*
X205969666Y-54117738D01*
X206255380Y-54689166D02*
X205255380Y-54355833D01*
X206255380Y-54022500D01*
X206207761Y-53736785D02*
X206255380Y-53593928D01*
X206255380Y-53355833D01*
X206207761Y-53260595D01*
X206160142Y-53212976D01*
X206064904Y-53165357D01*
X205969666Y-53165357D01*
X205874428Y-53212976D01*
X205826809Y-53260595D01*
X205779190Y-53355833D01*
X205731571Y-53546309D01*
X205683952Y-53641547D01*
X205636333Y-53689166D01*
X205541095Y-53736785D01*
X205445857Y-53736785D01*
X205350619Y-53689166D01*
X205303000Y-53641547D01*
X205255380Y-53546309D01*
X205255380Y-53308214D01*
X205303000Y-53165357D01*
X206160142Y-52736785D02*
X206207761Y-52689166D01*
X206255380Y-52736785D01*
X206207761Y-52784404D01*
X206160142Y-52736785D01*
X206255380Y-52736785D01*
X206160142Y-51689166D02*
X206207761Y-51736785D01*
X206255380Y-51879642D01*
X206255380Y-51974880D01*
X206207761Y-52117738D01*
X206112523Y-52212976D01*
X206017285Y-52260595D01*
X205826809Y-52308214D01*
X205683952Y-52308214D01*
X205493476Y-52260595D01*
X205398238Y-52212976D01*
X205303000Y-52117738D01*
X205255380Y-51974880D01*
X205255380Y-51879642D01*
X205303000Y-51736785D01*
X205350619Y-51689166D01*
X205255380Y-51070119D02*
X205255380Y-50879642D01*
X205303000Y-50784404D01*
X205398238Y-50689166D01*
X205588714Y-50641547D01*
X205922047Y-50641547D01*
X206112523Y-50689166D01*
X206207761Y-50784404D01*
X206255380Y-50879642D01*
X206255380Y-51070119D01*
X206207761Y-51165357D01*
X206112523Y-51260595D01*
X205922047Y-51308214D01*
X205588714Y-51308214D01*
X205398238Y-51260595D01*
X205303000Y-51165357D01*
X205255380Y-51070119D01*
X206255380Y-50212976D02*
X205255380Y-50212976D01*
X205969666Y-49879642D01*
X205255380Y-49546309D01*
X206255380Y-49546309D01*
X205350619Y-48355833D02*
X205303000Y-48308214D01*
X205255380Y-48212976D01*
X205255380Y-47974880D01*
X205303000Y-47879642D01*
X205350619Y-47832023D01*
X205445857Y-47784404D01*
X205541095Y-47784404D01*
X205683952Y-47832023D01*
X206255380Y-48403452D01*
X206255380Y-47784404D01*
X205255380Y-47165357D02*
X205255380Y-47070119D01*
X205303000Y-46974880D01*
X205350619Y-46927261D01*
X205445857Y-46879642D01*
X205636333Y-46832023D01*
X205874428Y-46832023D01*
X206064904Y-46879642D01*
X206160142Y-46927261D01*
X206207761Y-46974880D01*
X206255380Y-47070119D01*
X206255380Y-47165357D01*
X206207761Y-47260595D01*
X206160142Y-47308214D01*
X206064904Y-47355833D01*
X205874428Y-47403452D01*
X205636333Y-47403452D01*
X205445857Y-47355833D01*
X205350619Y-47308214D01*
X205303000Y-47260595D01*
X205255380Y-47165357D01*
X205350619Y-46451071D02*
X205303000Y-46403452D01*
X205255380Y-46308214D01*
X205255380Y-46070119D01*
X205303000Y-45974880D01*
X205350619Y-45927261D01*
X205445857Y-45879642D01*
X205541095Y-45879642D01*
X205683952Y-45927261D01*
X206255380Y-46498690D01*
X206255380Y-45879642D01*
X206255380Y-44927261D02*
X206255380Y-45498690D01*
X206255380Y-45212976D02*
X205255380Y-45212976D01*
X205398238Y-45308214D01*
X205493476Y-45403452D01*
X205541095Y-45498690D01*
X181564019Y-19859904D02*
X182564019Y-19859904D01*
X182564019Y-20098000D01*
X182516400Y-20240857D01*
X182421161Y-20336095D01*
X182325923Y-20383714D01*
X182135447Y-20431333D01*
X181992590Y-20431333D01*
X181802114Y-20383714D01*
X181706876Y-20336095D01*
X181611638Y-20240857D01*
X181564019Y-20098000D01*
X181564019Y-19859904D01*
X182087828Y-20859904D02*
X182087828Y-21193238D01*
X181564019Y-21336095D02*
X181564019Y-20859904D01*
X182564019Y-20859904D01*
X182564019Y-21336095D01*
X182087828Y-22098000D02*
X182040209Y-22240857D01*
X181992590Y-22288476D01*
X181897352Y-22336095D01*
X181754495Y-22336095D01*
X181659257Y-22288476D01*
X181611638Y-22240857D01*
X181564019Y-22145619D01*
X181564019Y-21764666D01*
X182564019Y-21764666D01*
X182564019Y-22098000D01*
X182516400Y-22193238D01*
X182468780Y-22240857D01*
X182373542Y-22288476D01*
X182278304Y-22288476D01*
X182183066Y-22240857D01*
X182135447Y-22193238D01*
X182087828Y-22098000D01*
X182087828Y-21764666D01*
X182564019Y-22764666D02*
X181754495Y-22764666D01*
X181659257Y-22812285D01*
X181611638Y-22859904D01*
X181564019Y-22955142D01*
X181564019Y-23145619D01*
X181611638Y-23240857D01*
X181659257Y-23288476D01*
X181754495Y-23336095D01*
X182564019Y-23336095D01*
X182516400Y-24336095D02*
X182564019Y-24240857D01*
X182564019Y-24098000D01*
X182516400Y-23955142D01*
X182421161Y-23859904D01*
X182325923Y-23812285D01*
X182135447Y-23764666D01*
X181992590Y-23764666D01*
X181802114Y-23812285D01*
X181706876Y-23859904D01*
X181611638Y-23955142D01*
X181564019Y-24098000D01*
X181564019Y-24193238D01*
X181611638Y-24336095D01*
X181659257Y-24383714D01*
X181992590Y-24383714D01*
X181992590Y-24193238D01*
X198931542Y-78906666D02*
X199407733Y-78906666D01*
X198836304Y-79192380D02*
X199169638Y-78192380D01*
X199502971Y-79192380D01*
X200407733Y-79097142D02*
X200360114Y-79144761D01*
X200217257Y-79192380D01*
X200122019Y-79192380D01*
X199979161Y-79144761D01*
X199883923Y-79049523D01*
X199836304Y-78954285D01*
X199788685Y-78763809D01*
X199788685Y-78620952D01*
X199836304Y-78430476D01*
X199883923Y-78335238D01*
X199979161Y-78240000D01*
X200122019Y-78192380D01*
X200217257Y-78192380D01*
X200360114Y-78240000D01*
X200407733Y-78287619D01*
X201407733Y-79097142D02*
X201360114Y-79144761D01*
X201217257Y-79192380D01*
X201122019Y-79192380D01*
X200979161Y-79144761D01*
X200883923Y-79049523D01*
X200836304Y-78954285D01*
X200788685Y-78763809D01*
X200788685Y-78620952D01*
X200836304Y-78430476D01*
X200883923Y-78335238D01*
X200979161Y-78240000D01*
X201122019Y-78192380D01*
X201217257Y-78192380D01*
X201360114Y-78240000D01*
X201407733Y-78287619D01*
X201788685Y-79144761D02*
X201931542Y-79192380D01*
X202169638Y-79192380D01*
X202264876Y-79144761D01*
X202312495Y-79097142D01*
X202360114Y-79001904D01*
X202360114Y-78906666D01*
X202312495Y-78811428D01*
X202264876Y-78763809D01*
X202169638Y-78716190D01*
X201979161Y-78668571D01*
X201883923Y-78620952D01*
X201836304Y-78573333D01*
X201788685Y-78478095D01*
X201788685Y-78382857D01*
X201836304Y-78287619D01*
X201883923Y-78240000D01*
X201979161Y-78192380D01*
X202217257Y-78192380D01*
X202360114Y-78240000D01*
X203360114Y-79192380D02*
X203026780Y-78716190D01*
X202788685Y-79192380D02*
X202788685Y-78192380D01*
X203169638Y-78192380D01*
X203264876Y-78240000D01*
X203312495Y-78287619D01*
X203360114Y-78382857D01*
X203360114Y-78525714D01*
X203312495Y-78620952D01*
X203264876Y-78668571D01*
X203169638Y-78716190D01*
X202788685Y-78716190D01*
X203979161Y-78716190D02*
X203979161Y-79192380D01*
X203645828Y-78192380D02*
X203979161Y-78716190D01*
X204312495Y-78192380D01*
X195778380Y-77430190D02*
X194778380Y-77430190D01*
X195730761Y-77001619D02*
X195778380Y-76858761D01*
X195778380Y-76620666D01*
X195730761Y-76525428D01*
X195683142Y-76477809D01*
X195587904Y-76430190D01*
X195492666Y-76430190D01*
X195397428Y-76477809D01*
X195349809Y-76525428D01*
X195302190Y-76620666D01*
X195254571Y-76811142D01*
X195206952Y-76906380D01*
X195159333Y-76954000D01*
X195064095Y-77001619D01*
X194968857Y-77001619D01*
X194873619Y-76954000D01*
X194826000Y-76906380D01*
X194778380Y-76811142D01*
X194778380Y-76573047D01*
X194826000Y-76430190D01*
X195778380Y-76001619D02*
X194778380Y-76001619D01*
X194778380Y-75620666D01*
X194826000Y-75525428D01*
X194873619Y-75477809D01*
X194968857Y-75430190D01*
X195111714Y-75430190D01*
X195206952Y-75477809D01*
X195254571Y-75525428D01*
X195302190Y-75620666D01*
X195302190Y-76001619D01*
X192476380Y-54332095D02*
X192000190Y-54665428D01*
X192476380Y-54903523D02*
X191476380Y-54903523D01*
X191476380Y-54522571D01*
X191524000Y-54427333D01*
X191571619Y-54379714D01*
X191666857Y-54332095D01*
X191809714Y-54332095D01*
X191904952Y-54379714D01*
X191952571Y-54427333D01*
X192000190Y-54522571D01*
X192000190Y-54903523D01*
X191476380Y-53903523D02*
X192285904Y-53903523D01*
X192381142Y-53855904D01*
X192428761Y-53808285D01*
X192476380Y-53713047D01*
X192476380Y-53522571D01*
X192428761Y-53427333D01*
X192381142Y-53379714D01*
X192285904Y-53332095D01*
X191476380Y-53332095D01*
X192476380Y-52855904D02*
X191476380Y-52855904D01*
X192476380Y-52284476D01*
X191476380Y-52284476D01*
X193924419Y-56399180D02*
X194114895Y-56399180D01*
X194210133Y-56446800D01*
X194305371Y-56542038D01*
X194352990Y-56732514D01*
X194352990Y-57065847D01*
X194305371Y-57256323D01*
X194210133Y-57351561D01*
X194114895Y-57399180D01*
X193924419Y-57399180D01*
X193829180Y-57351561D01*
X193733942Y-57256323D01*
X193686323Y-57065847D01*
X193686323Y-56732514D01*
X193733942Y-56542038D01*
X193829180Y-56446800D01*
X193924419Y-56399180D01*
X194781561Y-57399180D02*
X194781561Y-56399180D01*
X195162514Y-56399180D01*
X195257752Y-56446800D01*
X195305371Y-56494419D01*
X195352990Y-56589657D01*
X195352990Y-56732514D01*
X195305371Y-56827752D01*
X195257752Y-56875371D01*
X195162514Y-56922990D01*
X194781561Y-56922990D01*
X195638704Y-56399180D02*
X196210133Y-56399180D01*
X195924419Y-57399180D02*
X195924419Y-56399180D01*
X196495847Y-56494419D02*
X196543466Y-56446800D01*
X196638704Y-56399180D01*
X196876800Y-56399180D01*
X196972038Y-56446800D01*
X197019657Y-56494419D01*
X197067276Y-56589657D01*
X197067276Y-56684895D01*
X197019657Y-56827752D01*
X196448228Y-57399180D01*
X197067276Y-57399180D01*
X197988419Y-56399180D02*
X198178895Y-56399180D01*
X198274133Y-56446800D01*
X198369371Y-56542038D01*
X198416990Y-56732514D01*
X198416990Y-57065847D01*
X198369371Y-57256323D01*
X198274133Y-57351561D01*
X198178895Y-57399180D01*
X197988419Y-57399180D01*
X197893180Y-57351561D01*
X197797942Y-57256323D01*
X197750323Y-57065847D01*
X197750323Y-56732514D01*
X197797942Y-56542038D01*
X197893180Y-56446800D01*
X197988419Y-56399180D01*
X198845561Y-57399180D02*
X198845561Y-56399180D01*
X199226514Y-56399180D01*
X199321752Y-56446800D01*
X199369371Y-56494419D01*
X199416990Y-56589657D01*
X199416990Y-56732514D01*
X199369371Y-56827752D01*
X199321752Y-56875371D01*
X199226514Y-56922990D01*
X198845561Y-56922990D01*
X199702704Y-56399180D02*
X200274133Y-56399180D01*
X199988419Y-57399180D02*
X199988419Y-56399180D01*
X201131276Y-57399180D02*
X200559847Y-57399180D01*
X200845561Y-57399180D02*
X200845561Y-56399180D01*
X200750323Y-56542038D01*
X200655085Y-56637276D01*
X200559847Y-56684895D01*
X183642000Y-65532000D02*
G75*
G03*
X183642000Y-65532000I-254000J0D01*
G01*
X130071809Y-75581047D02*
X129595619Y-75581047D01*
X130595619Y-75247714D02*
X130071809Y-75581047D01*
X130595619Y-75914380D01*
X129595619Y-76723904D02*
X129595619Y-76247714D01*
X130595619Y-76247714D01*
X129595619Y-77533428D02*
X129595619Y-77057238D01*
X130595619Y-77057238D01*
X130595619Y-77771523D02*
X129595619Y-78009619D01*
X130309904Y-78200095D01*
X129595619Y-78390571D01*
X130595619Y-78628666D01*
X129595619Y-70223142D02*
X130071809Y-69889809D01*
X129595619Y-69651714D02*
X130595619Y-69651714D01*
X130595619Y-70032666D01*
X130548000Y-70127904D01*
X130500380Y-70175523D01*
X130405142Y-70223142D01*
X130262285Y-70223142D01*
X130167047Y-70175523D01*
X130119428Y-70127904D01*
X130071809Y-70032666D01*
X130071809Y-69651714D01*
X130119428Y-70651714D02*
X130119428Y-70985047D01*
X129595619Y-71127904D02*
X129595619Y-70651714D01*
X130595619Y-70651714D01*
X130595619Y-71127904D01*
X129595619Y-71556476D02*
X130595619Y-71556476D01*
X130595619Y-71794571D01*
X130548000Y-71937428D01*
X130452761Y-72032666D01*
X130357523Y-72080285D01*
X130167047Y-72127904D01*
X130024190Y-72127904D01*
X129833714Y-72080285D01*
X129738476Y-72032666D01*
X129643238Y-71937428D01*
X129595619Y-71794571D01*
X129595619Y-71556476D01*
X130548000Y-30734095D02*
X130595619Y-30638857D01*
X130595619Y-30496000D01*
X130548000Y-30353142D01*
X130452761Y-30257904D01*
X130357523Y-30210285D01*
X130167047Y-30162666D01*
X130024190Y-30162666D01*
X129833714Y-30210285D01*
X129738476Y-30257904D01*
X129643238Y-30353142D01*
X129595619Y-30496000D01*
X129595619Y-30591238D01*
X129643238Y-30734095D01*
X129690857Y-30781714D01*
X130024190Y-30781714D01*
X130024190Y-30591238D01*
X129595619Y-31210285D02*
X130595619Y-31210285D01*
X129595619Y-31781714D01*
X130595619Y-31781714D01*
X129595619Y-32257904D02*
X130595619Y-32257904D01*
X130595619Y-32496000D01*
X130548000Y-32638857D01*
X130452761Y-32734095D01*
X130357523Y-32781714D01*
X130167047Y-32829333D01*
X130024190Y-32829333D01*
X129833714Y-32781714D01*
X129738476Y-32734095D01*
X129643238Y-32638857D01*
X129595619Y-32496000D01*
X129595619Y-32257904D01*
X130119428Y-42283238D02*
X130071809Y-42426095D01*
X130024190Y-42473714D01*
X129928952Y-42521333D01*
X129786095Y-42521333D01*
X129690857Y-42473714D01*
X129643238Y-42426095D01*
X129595619Y-42330857D01*
X129595619Y-41949904D01*
X130595619Y-41949904D01*
X130595619Y-42283238D01*
X130548000Y-42378476D01*
X130500380Y-42426095D01*
X130405142Y-42473714D01*
X130309904Y-42473714D01*
X130214666Y-42426095D01*
X130167047Y-42378476D01*
X130119428Y-42283238D01*
X130119428Y-41949904D01*
X129595619Y-43426095D02*
X129595619Y-42949904D01*
X130595619Y-42949904D01*
X130595619Y-43664190D02*
X129595619Y-43902285D01*
X130309904Y-44092761D01*
X129595619Y-44283238D01*
X130595619Y-44521333D01*
X129595619Y-45473714D02*
X130071809Y-45140380D01*
X129595619Y-44902285D02*
X130595619Y-44902285D01*
X130595619Y-45283238D01*
X130548000Y-45378476D01*
X130500380Y-45426095D01*
X130405142Y-45473714D01*
X130262285Y-45473714D01*
X130167047Y-45426095D01*
X130119428Y-45378476D01*
X130071809Y-45283238D01*
X130071809Y-44902285D01*
X129690857Y-35861904D02*
X129643238Y-35814285D01*
X129595619Y-35671428D01*
X129595619Y-35576190D01*
X129643238Y-35433333D01*
X129738476Y-35338095D01*
X129833714Y-35290476D01*
X130024190Y-35242857D01*
X130167047Y-35242857D01*
X130357523Y-35290476D01*
X130452761Y-35338095D01*
X130548000Y-35433333D01*
X130595619Y-35576190D01*
X130595619Y-35671428D01*
X130548000Y-35814285D01*
X130500380Y-35861904D01*
X129595619Y-36290476D02*
X130595619Y-36290476D01*
X129881333Y-36623809D01*
X130595619Y-36957142D01*
X129595619Y-36957142D01*
X129595619Y-37433333D02*
X130595619Y-37433333D01*
X130595619Y-37814285D01*
X130548000Y-37909523D01*
X130500380Y-37957142D01*
X130405142Y-38004761D01*
X130262285Y-38004761D01*
X130167047Y-37957142D01*
X130119428Y-37909523D01*
X130071809Y-37814285D01*
X130071809Y-37433333D01*
X129595619Y-39004761D02*
X130071809Y-38671428D01*
X129595619Y-38433333D02*
X130595619Y-38433333D01*
X130595619Y-38814285D01*
X130548000Y-38909523D01*
X130500380Y-38957142D01*
X130405142Y-39004761D01*
X130262285Y-39004761D01*
X130167047Y-38957142D01*
X130119428Y-38909523D01*
X130071809Y-38814285D01*
X130071809Y-38433333D01*
X129643238Y-39385714D02*
X129595619Y-39528571D01*
X129595619Y-39766666D01*
X129643238Y-39861904D01*
X129690857Y-39909523D01*
X129786095Y-39957142D01*
X129881333Y-39957142D01*
X129976571Y-39909523D01*
X130024190Y-39861904D01*
X130071809Y-39766666D01*
X130119428Y-39576190D01*
X130167047Y-39480952D01*
X130214666Y-39433333D01*
X130309904Y-39385714D01*
X130405142Y-39385714D01*
X130500380Y-39433333D01*
X130548000Y-39480952D01*
X130595619Y-39576190D01*
X130595619Y-39814285D01*
X130548000Y-39957142D01*
X129595619Y-40957142D02*
X130071809Y-40623809D01*
X129595619Y-40385714D02*
X130595619Y-40385714D01*
X130595619Y-40766666D01*
X130548000Y-40861904D01*
X130500380Y-40909523D01*
X130405142Y-40957142D01*
X130262285Y-40957142D01*
X130167047Y-40909523D01*
X130119428Y-40861904D01*
X130071809Y-40766666D01*
X130071809Y-40385714D01*
X129595619Y-26000152D02*
X129595619Y-25428723D01*
X129595619Y-25714438D02*
X130595619Y-25714438D01*
X130452761Y-25619200D01*
X130357523Y-25523961D01*
X130309904Y-25428723D01*
X130500380Y-26381104D02*
X130548000Y-26428723D01*
X130595619Y-26523961D01*
X130595619Y-26762057D01*
X130548000Y-26857295D01*
X130500380Y-26904914D01*
X130405142Y-26952533D01*
X130309904Y-26952533D01*
X130167047Y-26904914D01*
X129595619Y-26333485D01*
X129595619Y-26952533D01*
X130595619Y-27238247D02*
X129595619Y-27571580D01*
X130595619Y-27904914D01*
X129646419Y-54984876D02*
X130646419Y-54984876D01*
X129646419Y-55556304D02*
X130217847Y-55127733D01*
X130646419Y-55556304D02*
X130074990Y-54984876D01*
X129646419Y-55984876D02*
X130646419Y-55984876D01*
X129646419Y-56556304D01*
X130646419Y-56556304D01*
X130646419Y-57222971D02*
X130646419Y-57413447D01*
X130598800Y-57508685D01*
X130503561Y-57603923D01*
X130313085Y-57651542D01*
X129979752Y-57651542D01*
X129789276Y-57603923D01*
X129694038Y-57508685D01*
X129646419Y-57413447D01*
X129646419Y-57222971D01*
X129694038Y-57127733D01*
X129789276Y-57032495D01*
X129979752Y-56984876D01*
X130313085Y-56984876D01*
X130503561Y-57032495D01*
X130598800Y-57127733D01*
X130646419Y-57222971D01*
X130170228Y-58413447D02*
X130122609Y-58556304D01*
X130074990Y-58603923D01*
X129979752Y-58651542D01*
X129836895Y-58651542D01*
X129741657Y-58603923D01*
X129694038Y-58556304D01*
X129646419Y-58461066D01*
X129646419Y-58080114D01*
X130646419Y-58080114D01*
X130646419Y-58413447D01*
X130598800Y-58508685D01*
X130551180Y-58556304D01*
X130455942Y-58603923D01*
X130360704Y-58603923D01*
X130265466Y-58556304D01*
X130217847Y-58508685D01*
X130170228Y-58413447D01*
X130170228Y-58080114D01*
D11*
%TO.C,J4*%
X131318000Y-49530000D02*
X133096000Y-47752000D01*
X139192000Y-47752000D02*
X131318000Y-47752000D01*
X140970000Y-49530000D02*
X139192000Y-47752000D01*
X140970000Y-47752000D02*
X131318000Y-47752000D01*
X140970000Y-67152000D02*
X131318000Y-67152000D01*
X131318000Y-47752000D02*
X131318000Y-67152000D01*
X140970000Y-47752000D02*
X140970000Y-67152000D01*
%TO.C,J5*%
X131368800Y-78994000D02*
X131368800Y-69850000D01*
X140258800Y-78994000D02*
X140258800Y-69850000D01*
X140258800Y-69850000D02*
X131368800Y-69850000D01*
X131368800Y-78994000D02*
X140258800Y-78994000D01*
X140258800Y-77216000D02*
X138480800Y-78994000D01*
X131368800Y-77216000D02*
X133146800Y-78994000D01*
%TO.C,J2*%
X140208000Y-36068000D02*
X140208000Y-45212000D01*
X131318000Y-36068000D02*
X131318000Y-45212000D01*
X131318000Y-45212000D02*
X140208000Y-45212000D01*
X140208000Y-36068000D02*
X131318000Y-36068000D01*
X131318000Y-37846000D02*
X133096000Y-36068000D01*
X140208000Y-37846000D02*
X138430000Y-36068000D01*
%TO.C,J1*%
X140208000Y-24638000D02*
X140208000Y-33782000D01*
X131318000Y-24638000D02*
X131318000Y-33782000D01*
X131318000Y-33782000D02*
X140208000Y-33782000D01*
X140208000Y-24638000D02*
X131318000Y-24638000D01*
X131318000Y-26416000D02*
X133096000Y-24638000D01*
X140208000Y-26416000D02*
X138430000Y-24638000D01*
%TO.C,L1*%
X186880000Y-49594000D02*
X186880000Y-57594000D01*
X178880000Y-49594000D02*
X178880000Y-57594000D01*
%TO.C,K2*%
X161630000Y-53420000D02*
X161630000Y-56570000D01*
X161630000Y-47570000D02*
X161630000Y-50720000D01*
X166740000Y-51070000D02*
X166740000Y-53070000D01*
X161030000Y-51720000D02*
X161030000Y-52420000D01*
X162230000Y-51720000D02*
X161030000Y-51720000D01*
X162230000Y-52420000D02*
X162230000Y-51720000D01*
X161030000Y-52420000D02*
X162230000Y-52420000D01*
X161430000Y-51720000D02*
X161830000Y-52420000D01*
X143780000Y-43720000D02*
X143780000Y-60420000D01*
X166480000Y-43720000D02*
X143780000Y-43720000D01*
X166480000Y-60420000D02*
X166480000Y-43720000D01*
X143780000Y-60420000D02*
X166480000Y-60420000D01*
%TO.C,K1*%
X161630000Y-34370000D02*
X161630000Y-37520000D01*
X161630000Y-28520000D02*
X161630000Y-31670000D01*
X166740000Y-32020000D02*
X166740000Y-34020000D01*
X161030000Y-32670000D02*
X161030000Y-33370000D01*
X162230000Y-32670000D02*
X161030000Y-32670000D01*
X162230000Y-33370000D02*
X162230000Y-32670000D01*
X161030000Y-33370000D02*
X162230000Y-33370000D01*
X161430000Y-32670000D02*
X161830000Y-33370000D01*
X143780000Y-24670000D02*
X143780000Y-41370000D01*
X166480000Y-24670000D02*
X143780000Y-24670000D01*
X166480000Y-41370000D02*
X166480000Y-24670000D01*
X143780000Y-41370000D02*
X166480000Y-41370000D01*
%TO.C,D4*%
X171322000Y-36732000D02*
X168022000Y-36732000D01*
X168022000Y-36732000D02*
X168022000Y-42132000D01*
X171322000Y-36732000D02*
X171322000Y-42132000D01*
%TO.C,JP3*%
X196656000Y-57852000D02*
X193996000Y-57852000D01*
X196656000Y-60452000D02*
X196656000Y-57852000D01*
X193996000Y-60452000D02*
X193996000Y-57852000D01*
X196656000Y-60452000D02*
X193996000Y-60452000D01*
X196656000Y-61722000D02*
X196656000Y-63052000D01*
X196656000Y-63052000D02*
X195326000Y-63052000D01*
%TO.C,D7*%
X192458000Y-35191000D02*
X192748000Y-35191000D01*
X194638000Y-34471000D02*
X194638000Y-35191000D01*
X194638000Y-35191000D02*
X194348000Y-35191000D01*
X192458000Y-34471000D02*
X192458000Y-35191000D01*
X192458000Y-31581000D02*
X194638000Y-31581000D01*
%TO.C,D6*%
X167604000Y-74406000D02*
X167604000Y-72406000D01*
X167604000Y-72406000D02*
X163704000Y-72406000D01*
X167604000Y-74406000D02*
X163704000Y-74406000D01*
%TO.C,D3*%
X158004000Y-66766000D02*
X160004000Y-66766000D01*
X160004000Y-66766000D02*
X160004000Y-62866000D01*
X158004000Y-66766000D02*
X158004000Y-62866000D01*
%TO.C,D1*%
X188020000Y-57836000D02*
X192670000Y-57836000D01*
X188020000Y-61036000D02*
X192670000Y-61036000D01*
X192670000Y-61036000D02*
X192670000Y-60236000D01*
%TO.C,Y1*%
X177660000Y-78344000D02*
X176410000Y-78344000D01*
X172860000Y-66944000D02*
X174110000Y-66944000D01*
X172860000Y-78344000D02*
X172860000Y-66944000D01*
X177660000Y-78344000D02*
X177660000Y-66944000D01*
X172860000Y-78344000D02*
X174110000Y-78344000D01*
X176410000Y-66944000D02*
X177660000Y-66944000D01*
D10*
%TO.C,U4*%
X196418000Y-41991000D02*
X196418000Y-43591000D01*
X206493000Y-41991000D02*
X206493000Y-36241000D01*
X195843000Y-41991000D02*
X195843000Y-36241000D01*
X206493000Y-41991000D02*
X205843000Y-41991000D01*
X206493000Y-36241000D02*
X205843000Y-36241000D01*
X195843000Y-36241000D02*
X196493000Y-36241000D01*
X195843000Y-41991000D02*
X196418000Y-41991000D01*
D11*
%TO.C,U3*%
X154432000Y-71100000D02*
X150982000Y-71100000D01*
X154432000Y-71100000D02*
X156382000Y-71100000D01*
X154432000Y-76220000D02*
X152482000Y-76220000D01*
X154432000Y-76220000D02*
X156382000Y-76220000D01*
%TO.C,U2*%
X178472000Y-47195000D02*
X177372000Y-47195000D01*
X178472000Y-48145000D02*
X178472000Y-47195000D01*
X179972000Y-48145000D02*
X178472000Y-48145000D01*
X178472000Y-38695000D02*
X173347000Y-38695000D01*
X178472000Y-37745000D02*
X178472000Y-38695000D01*
X179972000Y-37745000D02*
X178472000Y-37745000D01*
%TO.C,U1*%
X184350000Y-66032000D02*
X183035000Y-66032000D01*
X184350000Y-65732000D02*
X184350000Y-66032000D01*
X184650000Y-65732000D02*
X184350000Y-65732000D01*
X191570000Y-65732000D02*
X191570000Y-66032000D01*
X191270000Y-65732000D02*
X191570000Y-65732000D01*
X184350000Y-72952000D02*
X184350000Y-72652000D01*
X184650000Y-72952000D02*
X184350000Y-72952000D01*
X191570000Y-72952000D02*
X191570000Y-72652000D01*
X191270000Y-72952000D02*
X191570000Y-72952000D01*
%TO.C,R11*%
X160984000Y-73156578D02*
X160984000Y-72639422D01*
X159564000Y-73156578D02*
X159564000Y-72639422D01*
%TO.C,R10*%
X159564000Y-76957422D02*
X159564000Y-77474578D01*
X160984000Y-76957422D02*
X160984000Y-77474578D01*
%TO.C,R9*%
X195274000Y-49788578D02*
X195274000Y-49271422D01*
X193854000Y-49788578D02*
X193854000Y-49271422D01*
%TO.C,R8*%
X198576000Y-49788578D02*
X198576000Y-49271422D01*
X197156000Y-49788578D02*
X197156000Y-49271422D01*
%TO.C,R7*%
X187779922Y-76656000D02*
X188297078Y-76656000D01*
X187779922Y-75236000D02*
X188297078Y-75236000D01*
%TO.C,R6*%
X167334000Y-63250578D02*
X167334000Y-62733422D01*
X165914000Y-63250578D02*
X165914000Y-62733422D01*
%TO.C,R5*%
X154126000Y-63250578D02*
X154126000Y-62733422D01*
X152706000Y-63250578D02*
X152706000Y-62733422D01*
%TO.C,R4*%
X167390578Y-65838000D02*
X166873422Y-65838000D01*
X167390578Y-67258000D02*
X166873422Y-67258000D01*
%TO.C,R3*%
X154182578Y-65838000D02*
X153665422Y-65838000D01*
X154182578Y-67258000D02*
X153665422Y-67258000D01*
%TO.C,R2*%
X191345078Y-62028000D02*
X190827922Y-62028000D01*
X191345078Y-63448000D02*
X190827922Y-63448000D01*
%TO.C,R1*%
X186177422Y-63448000D02*
X186694578Y-63448000D01*
X186177422Y-62028000D02*
X186694578Y-62028000D01*
%TO.C,Q2*%
X161800000Y-61412000D02*
X163260000Y-61412000D01*
X161800000Y-64572000D02*
X163960000Y-64572000D01*
X161800000Y-64572000D02*
X161800000Y-63642000D01*
X161800000Y-61412000D02*
X161800000Y-62342000D01*
%TO.C,Q1*%
X148592000Y-61412000D02*
X150052000Y-61412000D01*
X148592000Y-64572000D02*
X150752000Y-64572000D01*
X148592000Y-64572000D02*
X148592000Y-63642000D01*
X148592000Y-61412000D02*
X148592000Y-62342000D01*
%TO.C,JP2*%
X200720000Y-63052000D02*
X199390000Y-63052000D01*
X200720000Y-61722000D02*
X200720000Y-63052000D01*
X200720000Y-60452000D02*
X198060000Y-60452000D01*
X198060000Y-60452000D02*
X198060000Y-57852000D01*
X200720000Y-60452000D02*
X200720000Y-57852000D01*
X200720000Y-57852000D02*
X198060000Y-57852000D01*
%TO.C,JP1*%
X198434000Y-52264000D02*
X198434000Y-53594000D01*
X197104000Y-52264000D02*
X198434000Y-52264000D01*
X195834000Y-52264000D02*
X195834000Y-54924000D01*
X195834000Y-54924000D02*
X193234000Y-54924000D01*
X195834000Y-52264000D02*
X193234000Y-52264000D01*
X193234000Y-52264000D02*
X193234000Y-54924000D01*
%TO.C,J7*%
X196536000Y-77276000D02*
X196536000Y-75946000D01*
X197866000Y-77276000D02*
X196536000Y-77276000D01*
X196536000Y-74676000D02*
X196536000Y-72076000D01*
X199136000Y-74676000D02*
X196536000Y-74676000D01*
X199136000Y-77276000D02*
X199136000Y-74676000D01*
X196536000Y-72076000D02*
X204276000Y-72076000D01*
X199136000Y-77276000D02*
X204276000Y-77276000D01*
X204276000Y-77276000D02*
X204276000Y-72076000D01*
%TO.C,J6*%
X184762000Y-19136000D02*
X184762000Y-20796000D01*
X192682000Y-19136000D02*
X184762000Y-19136000D01*
X192682000Y-20796000D02*
X192682000Y-19136000D01*
X186672000Y-28606000D02*
X185522000Y-28606000D01*
X190772000Y-29196000D02*
X190072000Y-29196000D01*
X190772000Y-28606000D02*
X190772000Y-29196000D01*
X191922000Y-28606000D02*
X190772000Y-28606000D01*
X184762000Y-26296000D02*
X184762000Y-23696000D01*
X192682000Y-23696000D02*
X192682000Y-26296000D01*
%TO.C,J3*%
X186376000Y-82102000D02*
X186376000Y-80772000D01*
X187706000Y-82102000D02*
X186376000Y-82102000D01*
X188976000Y-82102000D02*
X188976000Y-79442000D01*
X188976000Y-79442000D02*
X204276000Y-79442000D01*
X188976000Y-82102000D02*
X204276000Y-82102000D01*
X204276000Y-82102000D02*
X204276000Y-79442000D01*
%TO.C,FB2*%
X142489422Y-71830000D02*
X143006578Y-71830000D01*
X142489422Y-70410000D02*
X143006578Y-70410000D01*
%TO.C,FB1*%
X142489422Y-74370000D02*
X143006578Y-74370000D01*
X142489422Y-72950000D02*
X143006578Y-72950000D01*
%TO.C,D5*%
X167604000Y-77708000D02*
X163704000Y-77708000D01*
X167604000Y-75708000D02*
X163704000Y-75708000D01*
X167604000Y-77708000D02*
X167604000Y-75708000D01*
%TO.C,D2*%
X144796000Y-66766000D02*
X144796000Y-62866000D01*
X146796000Y-66766000D02*
X146796000Y-62866000D01*
X144796000Y-66766000D02*
X146796000Y-66766000D01*
%TO.C,C15*%
X197949078Y-30786000D02*
X197431922Y-30786000D01*
X197949078Y-32206000D02*
X197431922Y-32206000D01*
%TO.C,C14*%
X198926000Y-25622000D02*
X198926000Y-26122000D01*
X198676000Y-25872000D02*
X199176000Y-25872000D01*
X199416000Y-28627563D02*
X200480437Y-29692000D01*
X199416000Y-26236437D02*
X200480437Y-25172000D01*
X199416000Y-26236437D02*
X199416000Y-26372000D01*
X199416000Y-28627563D02*
X199416000Y-28492000D01*
X200480437Y-29692000D02*
X203936000Y-29692000D01*
X200480437Y-25172000D02*
X203936000Y-25172000D01*
X203936000Y-25172000D02*
X203936000Y-26372000D01*
X203936000Y-29692000D02*
X203936000Y-28492000D01*
%TO.C,C13*%
X198886578Y-45010000D02*
X198369422Y-45010000D01*
X198886578Y-46430000D02*
X198369422Y-46430000D01*
%TO.C,C12*%
X176746000Y-50374000D02*
X175746000Y-50374000D01*
X176246000Y-49874000D02*
X176246000Y-50874000D01*
X170540437Y-51114000D02*
X169476000Y-52178437D01*
X176931563Y-51114000D02*
X177996000Y-52178437D01*
X176931563Y-51114000D02*
X175246000Y-51114000D01*
X170540437Y-51114000D02*
X172226000Y-51114000D01*
X169476000Y-52178437D02*
X169476000Y-59634000D01*
X177996000Y-52178437D02*
X177996000Y-59634000D01*
X177996000Y-59634000D02*
X175246000Y-59634000D01*
X169476000Y-59634000D02*
X172226000Y-59634000D01*
%TO.C,C11*%
X155226000Y-77514000D02*
X154726000Y-77514000D01*
X154976000Y-77264000D02*
X154976000Y-77764000D01*
X152220437Y-78004000D02*
X151156000Y-79068437D01*
X154611563Y-78004000D02*
X155676000Y-79068437D01*
X154611563Y-78004000D02*
X154476000Y-78004000D01*
X152220437Y-78004000D02*
X152356000Y-78004000D01*
X151156000Y-79068437D02*
X151156000Y-82524000D01*
X155676000Y-79068437D02*
X155676000Y-82524000D01*
X155676000Y-82524000D02*
X154476000Y-82524000D01*
X151156000Y-82524000D02*
X152356000Y-82524000D01*
%TO.C,C10*%
X148622000Y-75482000D02*
X148122000Y-75482000D01*
X148372000Y-75232000D02*
X148372000Y-75732000D01*
X145616437Y-75972000D02*
X144552000Y-77036437D01*
X148007563Y-75972000D02*
X149072000Y-77036437D01*
X148007563Y-75972000D02*
X147872000Y-75972000D01*
X145616437Y-75972000D02*
X145752000Y-75972000D01*
X144552000Y-77036437D02*
X144552000Y-80492000D01*
X149072000Y-77036437D02*
X149072000Y-80492000D01*
X149072000Y-80492000D02*
X147872000Y-80492000D01*
X144552000Y-80492000D02*
X145752000Y-80492000D01*
%TO.C,C9*%
X202442578Y-30786000D02*
X201925422Y-30786000D01*
X202442578Y-32206000D02*
X201925422Y-32206000D01*
%TO.C,C8*%
X146102000Y-72385422D02*
X146102000Y-72902578D01*
X147522000Y-72385422D02*
X147522000Y-72902578D01*
%TO.C,C7*%
X169035000Y-27095000D02*
X169035000Y-28345000D01*
X168410000Y-27720000D02*
X169660000Y-27720000D01*
X169900000Y-34775563D02*
X170964437Y-35840000D01*
X169900000Y-26184437D02*
X170964437Y-25120000D01*
X169900000Y-26184437D02*
X169900000Y-28970000D01*
X169900000Y-34775563D02*
X169900000Y-31990000D01*
X170964437Y-35840000D02*
X180620000Y-35840000D01*
X170964437Y-25120000D02*
X180620000Y-25120000D01*
X180620000Y-25120000D02*
X180620000Y-28970000D01*
X180620000Y-35840000D02*
X180620000Y-31990000D01*
%TO.C,C6*%
X180646000Y-68399922D02*
X180646000Y-68917078D01*
X182066000Y-68399922D02*
X182066000Y-68917078D01*
%TO.C,C5*%
X172160000Y-68584578D02*
X172160000Y-68067422D01*
X170740000Y-68584578D02*
X170740000Y-68067422D01*
%TO.C,C4*%
X172160000Y-72394578D02*
X172160000Y-71877422D01*
X170740000Y-72394578D02*
X170740000Y-71877422D01*
%TO.C,C3*%
X178360000Y-68399922D02*
X178360000Y-68917078D01*
X179780000Y-68399922D02*
X179780000Y-68917078D01*
%TO.C,C2*%
X194988922Y-70306000D02*
X195506078Y-70306000D01*
X194988922Y-68886000D02*
X195506078Y-68886000D01*
%TO.C,C1*%
X183928000Y-74190000D02*
X183428000Y-74190000D01*
X183678000Y-73940000D02*
X183678000Y-74440000D01*
X180922437Y-74680000D02*
X179858000Y-75744437D01*
X183313563Y-74680000D02*
X184378000Y-75744437D01*
X183313563Y-74680000D02*
X183178000Y-74680000D01*
X180922437Y-74680000D02*
X181058000Y-74680000D01*
X179858000Y-75744437D02*
X179858000Y-79200000D01*
X184378000Y-75744437D02*
X184378000Y-79200000D01*
X184378000Y-79200000D02*
X183178000Y-79200000D01*
X179858000Y-79200000D02*
X181058000Y-79200000D01*
%TO.C,J4*%
D10*
X133016666Y-46442380D02*
X133016666Y-47156666D01*
X132969047Y-47299523D01*
X132873809Y-47394761D01*
X132730952Y-47442380D01*
X132635714Y-47442380D01*
X133921428Y-46775714D02*
X133921428Y-47442380D01*
X133683333Y-46394761D02*
X133445238Y-47109047D01*
X134064285Y-47109047D01*
%TO.C,J5*%
X137893466Y-79208380D02*
X137893466Y-79922666D01*
X137845847Y-80065523D01*
X137750609Y-80160761D01*
X137607752Y-80208380D01*
X137512514Y-80208380D01*
X138845847Y-79208380D02*
X138369657Y-79208380D01*
X138322038Y-79684571D01*
X138369657Y-79636952D01*
X138464895Y-79589333D01*
X138702990Y-79589333D01*
X138798228Y-79636952D01*
X138845847Y-79684571D01*
X138893466Y-79779809D01*
X138893466Y-80017904D01*
X138845847Y-80113142D01*
X138798228Y-80160761D01*
X138702990Y-80208380D01*
X138464895Y-80208380D01*
X138369657Y-80160761D01*
X138322038Y-80113142D01*
%TO.C,J2*%
X133016666Y-34758380D02*
X133016666Y-35472666D01*
X132969047Y-35615523D01*
X132873809Y-35710761D01*
X132730952Y-35758380D01*
X132635714Y-35758380D01*
X133445238Y-34853619D02*
X133492857Y-34806000D01*
X133588095Y-34758380D01*
X133826190Y-34758380D01*
X133921428Y-34806000D01*
X133969047Y-34853619D01*
X134016666Y-34948857D01*
X134016666Y-35044095D01*
X133969047Y-35186952D01*
X133397619Y-35758380D01*
X134016666Y-35758380D01*
%TO.C,J1*%
X133016666Y-23328380D02*
X133016666Y-24042666D01*
X132969047Y-24185523D01*
X132873809Y-24280761D01*
X132730952Y-24328380D01*
X132635714Y-24328380D01*
X134016666Y-24328380D02*
X133445238Y-24328380D01*
X133730952Y-24328380D02*
X133730952Y-23328380D01*
X133635714Y-23471238D01*
X133540476Y-23566476D01*
X133445238Y-23614095D01*
%TO.C,L1*%
X184745333Y-59100980D02*
X184269142Y-59100980D01*
X184269142Y-58100980D01*
X185602476Y-59100980D02*
X185031047Y-59100980D01*
X185316761Y-59100980D02*
X185316761Y-58100980D01*
X185221523Y-58243838D01*
X185126285Y-58339076D01*
X185031047Y-58386695D01*
%TO.C,K2*%
X168082380Y-52808095D02*
X167082380Y-52808095D01*
X168082380Y-52236666D02*
X167510952Y-52665238D01*
X167082380Y-52236666D02*
X167653809Y-52808095D01*
X167177619Y-51855714D02*
X167130000Y-51808095D01*
X167082380Y-51712857D01*
X167082380Y-51474761D01*
X167130000Y-51379523D01*
X167177619Y-51331904D01*
X167272857Y-51284285D01*
X167368095Y-51284285D01*
X167510952Y-51331904D01*
X168082380Y-51903333D01*
X168082380Y-51284285D01*
%TO.C,K1*%
X168082380Y-33758095D02*
X167082380Y-33758095D01*
X168082380Y-33186666D02*
X167510952Y-33615238D01*
X167082380Y-33186666D02*
X167653809Y-33758095D01*
X168082380Y-32234285D02*
X168082380Y-32805714D01*
X168082380Y-32520000D02*
X167082380Y-32520000D01*
X167225238Y-32615238D01*
X167320476Y-32710476D01*
X167368095Y-32805714D01*
%TO.C,D4*%
X172664380Y-38330095D02*
X171664380Y-38330095D01*
X171664380Y-38092000D01*
X171712000Y-37949142D01*
X171807238Y-37853904D01*
X171902476Y-37806285D01*
X172092952Y-37758666D01*
X172235809Y-37758666D01*
X172426285Y-37806285D01*
X172521523Y-37853904D01*
X172616761Y-37949142D01*
X172664380Y-38092000D01*
X172664380Y-38330095D01*
X171997714Y-36901523D02*
X172664380Y-36901523D01*
X171616761Y-37139619D02*
X172331047Y-37377714D01*
X172331047Y-36758666D01*
%TO.C,JP3*%
X194492666Y-63504380D02*
X194492666Y-64218666D01*
X194445047Y-64361523D01*
X194349809Y-64456761D01*
X194206952Y-64504380D01*
X194111714Y-64504380D01*
X194968857Y-64504380D02*
X194968857Y-63504380D01*
X195349809Y-63504380D01*
X195445047Y-63552000D01*
X195492666Y-63599619D01*
X195540285Y-63694857D01*
X195540285Y-63837714D01*
X195492666Y-63932952D01*
X195445047Y-63980571D01*
X195349809Y-64028190D01*
X194968857Y-64028190D01*
X195873619Y-63504380D02*
X196492666Y-63504380D01*
X196159333Y-63885333D01*
X196302190Y-63885333D01*
X196397428Y-63932952D01*
X196445047Y-63980571D01*
X196492666Y-64075809D01*
X196492666Y-64313904D01*
X196445047Y-64409142D01*
X196397428Y-64456761D01*
X196302190Y-64504380D01*
X196016476Y-64504380D01*
X195921238Y-64456761D01*
X195873619Y-64409142D01*
%TO.C,D7*%
X191950380Y-34259095D02*
X190950380Y-34259095D01*
X190950380Y-34021000D01*
X190998000Y-33878142D01*
X191093238Y-33782904D01*
X191188476Y-33735285D01*
X191378952Y-33687666D01*
X191521809Y-33687666D01*
X191712285Y-33735285D01*
X191807523Y-33782904D01*
X191902761Y-33878142D01*
X191950380Y-34021000D01*
X191950380Y-34259095D01*
X190950380Y-33354333D02*
X190950380Y-32687666D01*
X191950380Y-33116238D01*
%TO.C,D6*%
X164615904Y-71978780D02*
X164615904Y-70978780D01*
X164854000Y-70978780D01*
X164996857Y-71026400D01*
X165092095Y-71121638D01*
X165139714Y-71216876D01*
X165187333Y-71407352D01*
X165187333Y-71550209D01*
X165139714Y-71740685D01*
X165092095Y-71835923D01*
X164996857Y-71931161D01*
X164854000Y-71978780D01*
X164615904Y-71978780D01*
X166044476Y-70978780D02*
X165854000Y-70978780D01*
X165758761Y-71026400D01*
X165711142Y-71074019D01*
X165615904Y-71216876D01*
X165568285Y-71407352D01*
X165568285Y-71788304D01*
X165615904Y-71883542D01*
X165663523Y-71931161D01*
X165758761Y-71978780D01*
X165949238Y-71978780D01*
X166044476Y-71931161D01*
X166092095Y-71883542D01*
X166139714Y-71788304D01*
X166139714Y-71550209D01*
X166092095Y-71454971D01*
X166044476Y-71407352D01*
X165949238Y-71359733D01*
X165758761Y-71359733D01*
X165663523Y-71407352D01*
X165615904Y-71454971D01*
X165568285Y-71550209D01*
%TO.C,D3*%
X157456380Y-65254095D02*
X156456380Y-65254095D01*
X156456380Y-65016000D01*
X156504000Y-64873142D01*
X156599238Y-64777904D01*
X156694476Y-64730285D01*
X156884952Y-64682666D01*
X157027809Y-64682666D01*
X157218285Y-64730285D01*
X157313523Y-64777904D01*
X157408761Y-64873142D01*
X157456380Y-65016000D01*
X157456380Y-65254095D01*
X156456380Y-64349333D02*
X156456380Y-63730285D01*
X156837333Y-64063619D01*
X156837333Y-63920761D01*
X156884952Y-63825523D01*
X156932571Y-63777904D01*
X157027809Y-63730285D01*
X157265904Y-63730285D01*
X157361142Y-63777904D01*
X157408761Y-63825523D01*
X157456380Y-63920761D01*
X157456380Y-64206476D01*
X157408761Y-64301714D01*
X157361142Y-64349333D01*
%TO.C,D1*%
X187548780Y-59818495D02*
X186548780Y-59818495D01*
X186548780Y-59580400D01*
X186596400Y-59437542D01*
X186691638Y-59342304D01*
X186786876Y-59294685D01*
X186977352Y-59247066D01*
X187120209Y-59247066D01*
X187310685Y-59294685D01*
X187405923Y-59342304D01*
X187501161Y-59437542D01*
X187548780Y-59580400D01*
X187548780Y-59818495D01*
X187548780Y-58294685D02*
X187548780Y-58866114D01*
X187548780Y-58580400D02*
X186548780Y-58580400D01*
X186691638Y-58675638D01*
X186786876Y-58770876D01*
X186834495Y-58866114D01*
%TO.C,Y1*%
X178486190Y-76920190D02*
X178962380Y-76920190D01*
X177962380Y-77253523D02*
X178486190Y-76920190D01*
X177962380Y-76586857D01*
X178962380Y-75729714D02*
X178962380Y-76301142D01*
X178962380Y-76015428D02*
X177962380Y-76015428D01*
X178105238Y-76110666D01*
X178200476Y-76205904D01*
X178248095Y-76301142D01*
%TO.C,U4*%
X194370380Y-39877904D02*
X195179904Y-39877904D01*
X195275142Y-39830285D01*
X195322761Y-39782666D01*
X195370380Y-39687428D01*
X195370380Y-39496952D01*
X195322761Y-39401714D01*
X195275142Y-39354095D01*
X195179904Y-39306476D01*
X194370380Y-39306476D01*
X194703714Y-38401714D02*
X195370380Y-38401714D01*
X194322761Y-38639809D02*
X195037047Y-38877904D01*
X195037047Y-38258857D01*
%TO.C,U3*%
X153670095Y-69712380D02*
X153670095Y-70521904D01*
X153717714Y-70617142D01*
X153765333Y-70664761D01*
X153860571Y-70712380D01*
X154051047Y-70712380D01*
X154146285Y-70664761D01*
X154193904Y-70617142D01*
X154241523Y-70521904D01*
X154241523Y-69712380D01*
X154622476Y-69712380D02*
X155241523Y-69712380D01*
X154908190Y-70093333D01*
X155051047Y-70093333D01*
X155146285Y-70140952D01*
X155193904Y-70188571D01*
X155241523Y-70283809D01*
X155241523Y-70521904D01*
X155193904Y-70617142D01*
X155146285Y-70664761D01*
X155051047Y-70712380D01*
X154765333Y-70712380D01*
X154670095Y-70664761D01*
X154622476Y-70617142D01*
%TO.C,U2*%
X181610095Y-35747380D02*
X181610095Y-36556904D01*
X181657714Y-36652142D01*
X181705333Y-36699761D01*
X181800571Y-36747380D01*
X181991047Y-36747380D01*
X182086285Y-36699761D01*
X182133904Y-36652142D01*
X182181523Y-36556904D01*
X182181523Y-35747380D01*
X182610095Y-35842619D02*
X182657714Y-35795000D01*
X182752952Y-35747380D01*
X182991047Y-35747380D01*
X183086285Y-35795000D01*
X183133904Y-35842619D01*
X183181523Y-35937857D01*
X183181523Y-36033095D01*
X183133904Y-36175952D01*
X182562476Y-36747380D01*
X183181523Y-36747380D01*
%TO.C,U1*%
X191770095Y-64476380D02*
X191770095Y-65285904D01*
X191817714Y-65381142D01*
X191865333Y-65428761D01*
X191960571Y-65476380D01*
X192151047Y-65476380D01*
X192246285Y-65428761D01*
X192293904Y-65381142D01*
X192341523Y-65285904D01*
X192341523Y-64476380D01*
X193341523Y-65476380D02*
X192770095Y-65476380D01*
X193055809Y-65476380D02*
X193055809Y-64476380D01*
X192960571Y-64619238D01*
X192865333Y-64714476D01*
X192770095Y-64762095D01*
%TO.C,R11*%
X162504380Y-73540857D02*
X162028190Y-73874190D01*
X162504380Y-74112285D02*
X161504380Y-74112285D01*
X161504380Y-73731333D01*
X161552000Y-73636095D01*
X161599619Y-73588476D01*
X161694857Y-73540857D01*
X161837714Y-73540857D01*
X161932952Y-73588476D01*
X161980571Y-73636095D01*
X162028190Y-73731333D01*
X162028190Y-74112285D01*
X162504380Y-72588476D02*
X162504380Y-73159904D01*
X162504380Y-72874190D02*
X161504380Y-72874190D01*
X161647238Y-72969428D01*
X161742476Y-73064666D01*
X161790095Y-73159904D01*
X162504380Y-71636095D02*
X162504380Y-72207523D01*
X162504380Y-71921809D02*
X161504380Y-71921809D01*
X161647238Y-72017047D01*
X161742476Y-72112285D01*
X161790095Y-72207523D01*
%TO.C,R10*%
X162376380Y-77858857D02*
X161900190Y-78192190D01*
X162376380Y-78430285D02*
X161376380Y-78430285D01*
X161376380Y-78049333D01*
X161424000Y-77954095D01*
X161471619Y-77906476D01*
X161566857Y-77858857D01*
X161709714Y-77858857D01*
X161804952Y-77906476D01*
X161852571Y-77954095D01*
X161900190Y-78049333D01*
X161900190Y-78430285D01*
X162376380Y-76906476D02*
X162376380Y-77477904D01*
X162376380Y-77192190D02*
X161376380Y-77192190D01*
X161519238Y-77287428D01*
X161614476Y-77382666D01*
X161662095Y-77477904D01*
X161376380Y-76287428D02*
X161376380Y-76192190D01*
X161424000Y-76096952D01*
X161471619Y-76049333D01*
X161566857Y-76001714D01*
X161757333Y-75954095D01*
X161995428Y-75954095D01*
X162185904Y-76001714D01*
X162281142Y-76049333D01*
X162328761Y-76096952D01*
X162376380Y-76192190D01*
X162376380Y-76287428D01*
X162328761Y-76382666D01*
X162281142Y-76430285D01*
X162185904Y-76477904D01*
X161995428Y-76525523D01*
X161757333Y-76525523D01*
X161566857Y-76477904D01*
X161471619Y-76430285D01*
X161424000Y-76382666D01*
X161376380Y-76287428D01*
%TO.C,R9*%
X193366380Y-49696666D02*
X192890190Y-50030000D01*
X193366380Y-50268095D02*
X192366380Y-50268095D01*
X192366380Y-49887142D01*
X192414000Y-49791904D01*
X192461619Y-49744285D01*
X192556857Y-49696666D01*
X192699714Y-49696666D01*
X192794952Y-49744285D01*
X192842571Y-49791904D01*
X192890190Y-49887142D01*
X192890190Y-50268095D01*
X193366380Y-49220476D02*
X193366380Y-49030000D01*
X193318761Y-48934761D01*
X193271142Y-48887142D01*
X193128285Y-48791904D01*
X192937809Y-48744285D01*
X192556857Y-48744285D01*
X192461619Y-48791904D01*
X192414000Y-48839523D01*
X192366380Y-48934761D01*
X192366380Y-49125238D01*
X192414000Y-49220476D01*
X192461619Y-49268095D01*
X192556857Y-49315714D01*
X192794952Y-49315714D01*
X192890190Y-49268095D01*
X192937809Y-49220476D01*
X192985428Y-49125238D01*
X192985428Y-48934761D01*
X192937809Y-48839523D01*
X192890190Y-48791904D01*
X192794952Y-48744285D01*
%TO.C,R8*%
X196668380Y-49696666D02*
X196192190Y-50030000D01*
X196668380Y-50268095D02*
X195668380Y-50268095D01*
X195668380Y-49887142D01*
X195716000Y-49791904D01*
X195763619Y-49744285D01*
X195858857Y-49696666D01*
X196001714Y-49696666D01*
X196096952Y-49744285D01*
X196144571Y-49791904D01*
X196192190Y-49887142D01*
X196192190Y-50268095D01*
X196096952Y-49125238D02*
X196049333Y-49220476D01*
X196001714Y-49268095D01*
X195906476Y-49315714D01*
X195858857Y-49315714D01*
X195763619Y-49268095D01*
X195716000Y-49220476D01*
X195668380Y-49125238D01*
X195668380Y-48934761D01*
X195716000Y-48839523D01*
X195763619Y-48791904D01*
X195858857Y-48744285D01*
X195906476Y-48744285D01*
X196001714Y-48791904D01*
X196049333Y-48839523D01*
X196096952Y-48934761D01*
X196096952Y-49125238D01*
X196144571Y-49220476D01*
X196192190Y-49268095D01*
X196287428Y-49315714D01*
X196477904Y-49315714D01*
X196573142Y-49268095D01*
X196620761Y-49220476D01*
X196668380Y-49125238D01*
X196668380Y-48934761D01*
X196620761Y-48839523D01*
X196573142Y-48791904D01*
X196477904Y-48744285D01*
X196287428Y-48744285D01*
X196192190Y-48791904D01*
X196144571Y-48839523D01*
X196096952Y-48934761D01*
%TO.C,R7*%
X190536533Y-77363580D02*
X190203200Y-76887390D01*
X189965104Y-77363580D02*
X189965104Y-76363580D01*
X190346057Y-76363580D01*
X190441295Y-76411200D01*
X190488914Y-76458819D01*
X190536533Y-76554057D01*
X190536533Y-76696914D01*
X190488914Y-76792152D01*
X190441295Y-76839771D01*
X190346057Y-76887390D01*
X189965104Y-76887390D01*
X190869866Y-76363580D02*
X191536533Y-76363580D01*
X191107961Y-77363580D01*
%TO.C,R6*%
X165426380Y-63158666D02*
X164950190Y-63492000D01*
X165426380Y-63730095D02*
X164426380Y-63730095D01*
X164426380Y-63349142D01*
X164474000Y-63253904D01*
X164521619Y-63206285D01*
X164616857Y-63158666D01*
X164759714Y-63158666D01*
X164854952Y-63206285D01*
X164902571Y-63253904D01*
X164950190Y-63349142D01*
X164950190Y-63730095D01*
X164426380Y-62301523D02*
X164426380Y-62492000D01*
X164474000Y-62587238D01*
X164521619Y-62634857D01*
X164664476Y-62730095D01*
X164854952Y-62777714D01*
X165235904Y-62777714D01*
X165331142Y-62730095D01*
X165378761Y-62682476D01*
X165426380Y-62587238D01*
X165426380Y-62396761D01*
X165378761Y-62301523D01*
X165331142Y-62253904D01*
X165235904Y-62206285D01*
X164997809Y-62206285D01*
X164902571Y-62253904D01*
X164854952Y-62301523D01*
X164807333Y-62396761D01*
X164807333Y-62587238D01*
X164854952Y-62682476D01*
X164902571Y-62730095D01*
X164997809Y-62777714D01*
%TO.C,R5*%
X152218380Y-63158666D02*
X151742190Y-63492000D01*
X152218380Y-63730095D02*
X151218380Y-63730095D01*
X151218380Y-63349142D01*
X151266000Y-63253904D01*
X151313619Y-63206285D01*
X151408857Y-63158666D01*
X151551714Y-63158666D01*
X151646952Y-63206285D01*
X151694571Y-63253904D01*
X151742190Y-63349142D01*
X151742190Y-63730095D01*
X151218380Y-62253904D02*
X151218380Y-62730095D01*
X151694571Y-62777714D01*
X151646952Y-62730095D01*
X151599333Y-62634857D01*
X151599333Y-62396761D01*
X151646952Y-62301523D01*
X151694571Y-62253904D01*
X151789809Y-62206285D01*
X152027904Y-62206285D01*
X152123142Y-62253904D01*
X152170761Y-62301523D01*
X152218380Y-62396761D01*
X152218380Y-62634857D01*
X152170761Y-62730095D01*
X152123142Y-62777714D01*
%TO.C,R4*%
X166965333Y-68650380D02*
X166632000Y-68174190D01*
X166393904Y-68650380D02*
X166393904Y-67650380D01*
X166774857Y-67650380D01*
X166870095Y-67698000D01*
X166917714Y-67745619D01*
X166965333Y-67840857D01*
X166965333Y-67983714D01*
X166917714Y-68078952D01*
X166870095Y-68126571D01*
X166774857Y-68174190D01*
X166393904Y-68174190D01*
X167822476Y-67983714D02*
X167822476Y-68650380D01*
X167584380Y-67602761D02*
X167346285Y-68317047D01*
X167965333Y-68317047D01*
%TO.C,R3*%
X153757333Y-68650380D02*
X153424000Y-68174190D01*
X153185904Y-68650380D02*
X153185904Y-67650380D01*
X153566857Y-67650380D01*
X153662095Y-67698000D01*
X153709714Y-67745619D01*
X153757333Y-67840857D01*
X153757333Y-67983714D01*
X153709714Y-68078952D01*
X153662095Y-68126571D01*
X153566857Y-68174190D01*
X153185904Y-68174190D01*
X154090666Y-67650380D02*
X154709714Y-67650380D01*
X154376380Y-68031333D01*
X154519238Y-68031333D01*
X154614476Y-68078952D01*
X154662095Y-68126571D01*
X154709714Y-68221809D01*
X154709714Y-68459904D01*
X154662095Y-68555142D01*
X154614476Y-68602761D01*
X154519238Y-68650380D01*
X154233523Y-68650380D01*
X154138285Y-68602761D01*
X154090666Y-68555142D01*
%TO.C,R2*%
X189225180Y-62396666D02*
X188748990Y-62730000D01*
X189225180Y-62968095D02*
X188225180Y-62968095D01*
X188225180Y-62587142D01*
X188272800Y-62491904D01*
X188320419Y-62444285D01*
X188415657Y-62396666D01*
X188558514Y-62396666D01*
X188653752Y-62444285D01*
X188701371Y-62491904D01*
X188748990Y-62587142D01*
X188748990Y-62968095D01*
X188320419Y-62015714D02*
X188272800Y-61968095D01*
X188225180Y-61872857D01*
X188225180Y-61634761D01*
X188272800Y-61539523D01*
X188320419Y-61491904D01*
X188415657Y-61444285D01*
X188510895Y-61444285D01*
X188653752Y-61491904D01*
X189225180Y-62063333D01*
X189225180Y-61444285D01*
%TO.C,R1*%
X184602380Y-62904666D02*
X184126190Y-63238000D01*
X184602380Y-63476095D02*
X183602380Y-63476095D01*
X183602380Y-63095142D01*
X183650000Y-62999904D01*
X183697619Y-62952285D01*
X183792857Y-62904666D01*
X183935714Y-62904666D01*
X184030952Y-62952285D01*
X184078571Y-62999904D01*
X184126190Y-63095142D01*
X184126190Y-63476095D01*
X184602380Y-61952285D02*
X184602380Y-62523714D01*
X184602380Y-62238000D02*
X183602380Y-62238000D01*
X183745238Y-62333238D01*
X183840476Y-62428476D01*
X183888095Y-62523714D01*
%TO.C,Q2*%
X162464761Y-66039619D02*
X162369523Y-65992000D01*
X162274285Y-65896761D01*
X162131428Y-65753904D01*
X162036190Y-65706285D01*
X161940952Y-65706285D01*
X161988571Y-65944380D02*
X161893333Y-65896761D01*
X161798095Y-65801523D01*
X161750476Y-65611047D01*
X161750476Y-65277714D01*
X161798095Y-65087238D01*
X161893333Y-64992000D01*
X161988571Y-64944380D01*
X162179047Y-64944380D01*
X162274285Y-64992000D01*
X162369523Y-65087238D01*
X162417142Y-65277714D01*
X162417142Y-65611047D01*
X162369523Y-65801523D01*
X162274285Y-65896761D01*
X162179047Y-65944380D01*
X161988571Y-65944380D01*
X162798095Y-65039619D02*
X162845714Y-64992000D01*
X162940952Y-64944380D01*
X163179047Y-64944380D01*
X163274285Y-64992000D01*
X163321904Y-65039619D01*
X163369523Y-65134857D01*
X163369523Y-65230095D01*
X163321904Y-65372952D01*
X162750476Y-65944380D01*
X163369523Y-65944380D01*
%TO.C,Q1*%
X149256761Y-66039619D02*
X149161523Y-65992000D01*
X149066285Y-65896761D01*
X148923428Y-65753904D01*
X148828190Y-65706285D01*
X148732952Y-65706285D01*
X148780571Y-65944380D02*
X148685333Y-65896761D01*
X148590095Y-65801523D01*
X148542476Y-65611047D01*
X148542476Y-65277714D01*
X148590095Y-65087238D01*
X148685333Y-64992000D01*
X148780571Y-64944380D01*
X148971047Y-64944380D01*
X149066285Y-64992000D01*
X149161523Y-65087238D01*
X149209142Y-65277714D01*
X149209142Y-65611047D01*
X149161523Y-65801523D01*
X149066285Y-65896761D01*
X148971047Y-65944380D01*
X148780571Y-65944380D01*
X150161523Y-65944380D02*
X149590095Y-65944380D01*
X149875809Y-65944380D02*
X149875809Y-64944380D01*
X149780571Y-65087238D01*
X149685333Y-65182476D01*
X149590095Y-65230095D01*
%TO.C,JP2*%
X198556666Y-63504380D02*
X198556666Y-64218666D01*
X198509047Y-64361523D01*
X198413809Y-64456761D01*
X198270952Y-64504380D01*
X198175714Y-64504380D01*
X199032857Y-64504380D02*
X199032857Y-63504380D01*
X199413809Y-63504380D01*
X199509047Y-63552000D01*
X199556666Y-63599619D01*
X199604285Y-63694857D01*
X199604285Y-63837714D01*
X199556666Y-63932952D01*
X199509047Y-63980571D01*
X199413809Y-64028190D01*
X199032857Y-64028190D01*
X199985238Y-63599619D02*
X200032857Y-63552000D01*
X200128095Y-63504380D01*
X200366190Y-63504380D01*
X200461428Y-63552000D01*
X200509047Y-63599619D01*
X200556666Y-63694857D01*
X200556666Y-63790095D01*
X200509047Y-63932952D01*
X199937619Y-64504380D01*
X200556666Y-64504380D01*
%TO.C,JP1*%
X198886380Y-54427333D02*
X199600666Y-54427333D01*
X199743523Y-54474952D01*
X199838761Y-54570190D01*
X199886380Y-54713047D01*
X199886380Y-54808285D01*
X199886380Y-53951142D02*
X198886380Y-53951142D01*
X198886380Y-53570190D01*
X198934000Y-53474952D01*
X198981619Y-53427333D01*
X199076857Y-53379714D01*
X199219714Y-53379714D01*
X199314952Y-53427333D01*
X199362571Y-53474952D01*
X199410190Y-53570190D01*
X199410190Y-53951142D01*
X199886380Y-52427333D02*
X199886380Y-52998761D01*
X199886380Y-52713047D02*
X198886380Y-52713047D01*
X199029238Y-52808285D01*
X199124476Y-52903523D01*
X199172095Y-52998761D01*
%TO.C,J7*%
X199564666Y-70318380D02*
X199564666Y-71032666D01*
X199517047Y-71175523D01*
X199421809Y-71270761D01*
X199278952Y-71318380D01*
X199183714Y-71318380D01*
X199945619Y-70318380D02*
X200612285Y-70318380D01*
X200183714Y-71318380D01*
%TO.C,J6*%
X194930780Y-27155733D02*
X195645066Y-27155733D01*
X195787923Y-27203352D01*
X195883161Y-27298590D01*
X195930780Y-27441447D01*
X195930780Y-27536685D01*
X194930780Y-26250971D02*
X194930780Y-26441447D01*
X194978400Y-26536685D01*
X195026019Y-26584304D01*
X195168876Y-26679542D01*
X195359352Y-26727161D01*
X195740304Y-26727161D01*
X195835542Y-26679542D01*
X195883161Y-26631923D01*
X195930780Y-26536685D01*
X195930780Y-26346209D01*
X195883161Y-26250971D01*
X195835542Y-26203352D01*
X195740304Y-26155733D01*
X195502209Y-26155733D01*
X195406971Y-26203352D01*
X195359352Y-26250971D01*
X195311733Y-26346209D01*
X195311733Y-26536685D01*
X195359352Y-26631923D01*
X195406971Y-26679542D01*
X195502209Y-26727161D01*
%TO.C,J3*%
X184828380Y-81105333D02*
X185542666Y-81105333D01*
X185685523Y-81152952D01*
X185780761Y-81248190D01*
X185828380Y-81391047D01*
X185828380Y-81486285D01*
X184828380Y-80724380D02*
X184828380Y-80105333D01*
X185209333Y-80438666D01*
X185209333Y-80295809D01*
X185256952Y-80200571D01*
X185304571Y-80152952D01*
X185399809Y-80105333D01*
X185637904Y-80105333D01*
X185733142Y-80152952D01*
X185780761Y-80200571D01*
X185828380Y-80295809D01*
X185828380Y-80581523D01*
X185780761Y-80676761D01*
X185733142Y-80724380D01*
%TO.C,FB2*%
X141914666Y-69473771D02*
X141581333Y-69473771D01*
X141581333Y-69997580D02*
X141581333Y-68997580D01*
X142057523Y-68997580D01*
X142771809Y-69473771D02*
X142914666Y-69521390D01*
X142962285Y-69569009D01*
X143009904Y-69664247D01*
X143009904Y-69807104D01*
X142962285Y-69902342D01*
X142914666Y-69949961D01*
X142819428Y-69997580D01*
X142438476Y-69997580D01*
X142438476Y-68997580D01*
X142771809Y-68997580D01*
X142867047Y-69045200D01*
X142914666Y-69092819D01*
X142962285Y-69188057D01*
X142962285Y-69283295D01*
X142914666Y-69378533D01*
X142867047Y-69426152D01*
X142771809Y-69473771D01*
X142438476Y-69473771D01*
X143390857Y-69092819D02*
X143438476Y-69045200D01*
X143533714Y-68997580D01*
X143771809Y-68997580D01*
X143867047Y-69045200D01*
X143914666Y-69092819D01*
X143962285Y-69188057D01*
X143962285Y-69283295D01*
X143914666Y-69426152D01*
X143343238Y-69997580D01*
X143962285Y-69997580D01*
%TO.C,FB1*%
X141914666Y-75366571D02*
X141581333Y-75366571D01*
X141581333Y-75890380D02*
X141581333Y-74890380D01*
X142057523Y-74890380D01*
X142771809Y-75366571D02*
X142914666Y-75414190D01*
X142962285Y-75461809D01*
X143009904Y-75557047D01*
X143009904Y-75699904D01*
X142962285Y-75795142D01*
X142914666Y-75842761D01*
X142819428Y-75890380D01*
X142438476Y-75890380D01*
X142438476Y-74890380D01*
X142771809Y-74890380D01*
X142867047Y-74938000D01*
X142914666Y-74985619D01*
X142962285Y-75080857D01*
X142962285Y-75176095D01*
X142914666Y-75271333D01*
X142867047Y-75318952D01*
X142771809Y-75366571D01*
X142438476Y-75366571D01*
X143962285Y-75890380D02*
X143390857Y-75890380D01*
X143676571Y-75890380D02*
X143676571Y-74890380D01*
X143581333Y-75033238D01*
X143486095Y-75128476D01*
X143390857Y-75176095D01*
%TO.C,D5*%
X164615904Y-79160380D02*
X164615904Y-78160380D01*
X164854000Y-78160380D01*
X164996857Y-78208000D01*
X165092095Y-78303238D01*
X165139714Y-78398476D01*
X165187333Y-78588952D01*
X165187333Y-78731809D01*
X165139714Y-78922285D01*
X165092095Y-79017523D01*
X164996857Y-79112761D01*
X164854000Y-79160380D01*
X164615904Y-79160380D01*
X166092095Y-78160380D02*
X165615904Y-78160380D01*
X165568285Y-78636571D01*
X165615904Y-78588952D01*
X165711142Y-78541333D01*
X165949238Y-78541333D01*
X166044476Y-78588952D01*
X166092095Y-78636571D01*
X166139714Y-78731809D01*
X166139714Y-78969904D01*
X166092095Y-79065142D01*
X166044476Y-79112761D01*
X165949238Y-79160380D01*
X165711142Y-79160380D01*
X165615904Y-79112761D01*
X165568285Y-79065142D01*
%TO.C,D2*%
X144248380Y-65254095D02*
X143248380Y-65254095D01*
X143248380Y-65016000D01*
X143296000Y-64873142D01*
X143391238Y-64777904D01*
X143486476Y-64730285D01*
X143676952Y-64682666D01*
X143819809Y-64682666D01*
X144010285Y-64730285D01*
X144105523Y-64777904D01*
X144200761Y-64873142D01*
X144248380Y-65016000D01*
X144248380Y-65254095D01*
X143343619Y-64301714D02*
X143296000Y-64254095D01*
X143248380Y-64158857D01*
X143248380Y-63920761D01*
X143296000Y-63825523D01*
X143343619Y-63777904D01*
X143438857Y-63730285D01*
X143534095Y-63730285D01*
X143676952Y-63777904D01*
X144248380Y-64349333D01*
X144248380Y-63730285D01*
%TO.C,C15*%
X197047642Y-33503142D02*
X197000023Y-33550761D01*
X196857166Y-33598380D01*
X196761928Y-33598380D01*
X196619071Y-33550761D01*
X196523833Y-33455523D01*
X196476214Y-33360285D01*
X196428595Y-33169809D01*
X196428595Y-33026952D01*
X196476214Y-32836476D01*
X196523833Y-32741238D01*
X196619071Y-32646000D01*
X196761928Y-32598380D01*
X196857166Y-32598380D01*
X197000023Y-32646000D01*
X197047642Y-32693619D01*
X198000023Y-33598380D02*
X197428595Y-33598380D01*
X197714309Y-33598380D02*
X197714309Y-32598380D01*
X197619071Y-32741238D01*
X197523833Y-32836476D01*
X197428595Y-32884095D01*
X198904785Y-32598380D02*
X198428595Y-32598380D01*
X198380976Y-33074571D01*
X198428595Y-33026952D01*
X198523833Y-32979333D01*
X198761928Y-32979333D01*
X198857166Y-33026952D01*
X198904785Y-33074571D01*
X198952404Y-33169809D01*
X198952404Y-33407904D01*
X198904785Y-33503142D01*
X198857166Y-33550761D01*
X198761928Y-33598380D01*
X198523833Y-33598380D01*
X198428595Y-33550761D01*
X198380976Y-33503142D01*
%TO.C,C14*%
X201033142Y-24589142D02*
X200985523Y-24636761D01*
X200842666Y-24684380D01*
X200747428Y-24684380D01*
X200604571Y-24636761D01*
X200509333Y-24541523D01*
X200461714Y-24446285D01*
X200414095Y-24255809D01*
X200414095Y-24112952D01*
X200461714Y-23922476D01*
X200509333Y-23827238D01*
X200604571Y-23732000D01*
X200747428Y-23684380D01*
X200842666Y-23684380D01*
X200985523Y-23732000D01*
X201033142Y-23779619D01*
X201985523Y-24684380D02*
X201414095Y-24684380D01*
X201699809Y-24684380D02*
X201699809Y-23684380D01*
X201604571Y-23827238D01*
X201509333Y-23922476D01*
X201414095Y-23970095D01*
X202842666Y-24017714D02*
X202842666Y-24684380D01*
X202604571Y-23636761D02*
X202366476Y-24351047D01*
X202985523Y-24351047D01*
%TO.C,C13*%
X196445142Y-46362857D02*
X196492761Y-46410476D01*
X196540380Y-46553333D01*
X196540380Y-46648571D01*
X196492761Y-46791428D01*
X196397523Y-46886666D01*
X196302285Y-46934285D01*
X196111809Y-46981904D01*
X195968952Y-46981904D01*
X195778476Y-46934285D01*
X195683238Y-46886666D01*
X195588000Y-46791428D01*
X195540380Y-46648571D01*
X195540380Y-46553333D01*
X195588000Y-46410476D01*
X195635619Y-46362857D01*
X196540380Y-45410476D02*
X196540380Y-45981904D01*
X196540380Y-45696190D02*
X195540380Y-45696190D01*
X195683238Y-45791428D01*
X195778476Y-45886666D01*
X195826095Y-45981904D01*
X195540380Y-45077142D02*
X195540380Y-44458095D01*
X195921333Y-44791428D01*
X195921333Y-44648571D01*
X195968952Y-44553333D01*
X196016571Y-44505714D01*
X196111809Y-44458095D01*
X196349904Y-44458095D01*
X196445142Y-44505714D01*
X196492761Y-44553333D01*
X196540380Y-44648571D01*
X196540380Y-44934285D01*
X196492761Y-45029523D01*
X196445142Y-45077142D01*
%TO.C,C12*%
X179293142Y-53982857D02*
X179340761Y-54030476D01*
X179388380Y-54173333D01*
X179388380Y-54268571D01*
X179340761Y-54411428D01*
X179245523Y-54506666D01*
X179150285Y-54554285D01*
X178959809Y-54601904D01*
X178816952Y-54601904D01*
X178626476Y-54554285D01*
X178531238Y-54506666D01*
X178436000Y-54411428D01*
X178388380Y-54268571D01*
X178388380Y-54173333D01*
X178436000Y-54030476D01*
X178483619Y-53982857D01*
X179388380Y-53030476D02*
X179388380Y-53601904D01*
X179388380Y-53316190D02*
X178388380Y-53316190D01*
X178531238Y-53411428D01*
X178626476Y-53506666D01*
X178674095Y-53601904D01*
X178483619Y-52649523D02*
X178436000Y-52601904D01*
X178388380Y-52506666D01*
X178388380Y-52268571D01*
X178436000Y-52173333D01*
X178483619Y-52125714D01*
X178578857Y-52078095D01*
X178674095Y-52078095D01*
X178816952Y-52125714D01*
X179388380Y-52697142D01*
X179388380Y-52078095D01*
%TO.C,C11*%
X156821142Y-80652857D02*
X156868761Y-80700476D01*
X156916380Y-80843333D01*
X156916380Y-80938571D01*
X156868761Y-81081428D01*
X156773523Y-81176666D01*
X156678285Y-81224285D01*
X156487809Y-81271904D01*
X156344952Y-81271904D01*
X156154476Y-81224285D01*
X156059238Y-81176666D01*
X155964000Y-81081428D01*
X155916380Y-80938571D01*
X155916380Y-80843333D01*
X155964000Y-80700476D01*
X156011619Y-80652857D01*
X156916380Y-79700476D02*
X156916380Y-80271904D01*
X156916380Y-79986190D02*
X155916380Y-79986190D01*
X156059238Y-80081428D01*
X156154476Y-80176666D01*
X156202095Y-80271904D01*
X156916380Y-78748095D02*
X156916380Y-79319523D01*
X156916380Y-79033809D02*
X155916380Y-79033809D01*
X156059238Y-79129047D01*
X156154476Y-79224285D01*
X156202095Y-79319523D01*
%TO.C,C10*%
X150369142Y-78874857D02*
X150416761Y-78922476D01*
X150464380Y-79065333D01*
X150464380Y-79160571D01*
X150416761Y-79303428D01*
X150321523Y-79398666D01*
X150226285Y-79446285D01*
X150035809Y-79493904D01*
X149892952Y-79493904D01*
X149702476Y-79446285D01*
X149607238Y-79398666D01*
X149512000Y-79303428D01*
X149464380Y-79160571D01*
X149464380Y-79065333D01*
X149512000Y-78922476D01*
X149559619Y-78874857D01*
X150464380Y-77922476D02*
X150464380Y-78493904D01*
X150464380Y-78208190D02*
X149464380Y-78208190D01*
X149607238Y-78303428D01*
X149702476Y-78398666D01*
X149750095Y-78493904D01*
X149464380Y-77303428D02*
X149464380Y-77208190D01*
X149512000Y-77112952D01*
X149559619Y-77065333D01*
X149654857Y-77017714D01*
X149845333Y-76970095D01*
X150083428Y-76970095D01*
X150273904Y-77017714D01*
X150369142Y-77065333D01*
X150416761Y-77112952D01*
X150464380Y-77208190D01*
X150464380Y-77303428D01*
X150416761Y-77398666D01*
X150369142Y-77446285D01*
X150273904Y-77493904D01*
X150083428Y-77541523D01*
X149845333Y-77541523D01*
X149654857Y-77493904D01*
X149559619Y-77446285D01*
X149512000Y-77398666D01*
X149464380Y-77303428D01*
%TO.C,C9*%
X202017333Y-33503142D02*
X201969714Y-33550761D01*
X201826857Y-33598380D01*
X201731619Y-33598380D01*
X201588761Y-33550761D01*
X201493523Y-33455523D01*
X201445904Y-33360285D01*
X201398285Y-33169809D01*
X201398285Y-33026952D01*
X201445904Y-32836476D01*
X201493523Y-32741238D01*
X201588761Y-32646000D01*
X201731619Y-32598380D01*
X201826857Y-32598380D01*
X201969714Y-32646000D01*
X202017333Y-32693619D01*
X202493523Y-33598380D02*
X202684000Y-33598380D01*
X202779238Y-33550761D01*
X202826857Y-33503142D01*
X202922095Y-33360285D01*
X202969714Y-33169809D01*
X202969714Y-32788857D01*
X202922095Y-32693619D01*
X202874476Y-32646000D01*
X202779238Y-32598380D01*
X202588761Y-32598380D01*
X202493523Y-32646000D01*
X202445904Y-32693619D01*
X202398285Y-32788857D01*
X202398285Y-33026952D01*
X202445904Y-33122190D01*
X202493523Y-33169809D01*
X202588761Y-33217428D01*
X202779238Y-33217428D01*
X202874476Y-33169809D01*
X202922095Y-33122190D01*
X202969714Y-33026952D01*
%TO.C,C8*%
X148819142Y-72810666D02*
X148866761Y-72858285D01*
X148914380Y-73001142D01*
X148914380Y-73096380D01*
X148866761Y-73239238D01*
X148771523Y-73334476D01*
X148676285Y-73382095D01*
X148485809Y-73429714D01*
X148342952Y-73429714D01*
X148152476Y-73382095D01*
X148057238Y-73334476D01*
X147962000Y-73239238D01*
X147914380Y-73096380D01*
X147914380Y-73001142D01*
X147962000Y-72858285D01*
X148009619Y-72810666D01*
X148342952Y-72239238D02*
X148295333Y-72334476D01*
X148247714Y-72382095D01*
X148152476Y-72429714D01*
X148104857Y-72429714D01*
X148009619Y-72382095D01*
X147962000Y-72334476D01*
X147914380Y-72239238D01*
X147914380Y-72048761D01*
X147962000Y-71953523D01*
X148009619Y-71905904D01*
X148104857Y-71858285D01*
X148152476Y-71858285D01*
X148247714Y-71905904D01*
X148295333Y-71953523D01*
X148342952Y-72048761D01*
X148342952Y-72239238D01*
X148390571Y-72334476D01*
X148438190Y-72382095D01*
X148533428Y-72429714D01*
X148723904Y-72429714D01*
X148819142Y-72382095D01*
X148866761Y-72334476D01*
X148914380Y-72239238D01*
X148914380Y-72048761D01*
X148866761Y-71953523D01*
X148819142Y-71905904D01*
X148723904Y-71858285D01*
X148533428Y-71858285D01*
X148438190Y-71905904D01*
X148390571Y-71953523D01*
X148342952Y-72048761D01*
%TO.C,C7*%
X175093333Y-24537142D02*
X175045714Y-24584761D01*
X174902857Y-24632380D01*
X174807619Y-24632380D01*
X174664761Y-24584761D01*
X174569523Y-24489523D01*
X174521904Y-24394285D01*
X174474285Y-24203809D01*
X174474285Y-24060952D01*
X174521904Y-23870476D01*
X174569523Y-23775238D01*
X174664761Y-23680000D01*
X174807619Y-23632380D01*
X174902857Y-23632380D01*
X175045714Y-23680000D01*
X175093333Y-23727619D01*
X175426666Y-23632380D02*
X176093333Y-23632380D01*
X175664761Y-24632380D01*
%TO.C,C6*%
X181494133Y-66701942D02*
X181446514Y-66749561D01*
X181303657Y-66797180D01*
X181208419Y-66797180D01*
X181065561Y-66749561D01*
X180970323Y-66654323D01*
X180922704Y-66559085D01*
X180875085Y-66368609D01*
X180875085Y-66225752D01*
X180922704Y-66035276D01*
X180970323Y-65940038D01*
X181065561Y-65844800D01*
X181208419Y-65797180D01*
X181303657Y-65797180D01*
X181446514Y-65844800D01*
X181494133Y-65892419D01*
X182351276Y-65797180D02*
X182160800Y-65797180D01*
X182065561Y-65844800D01*
X182017942Y-65892419D01*
X181922704Y-66035276D01*
X181875085Y-66225752D01*
X181875085Y-66606704D01*
X181922704Y-66701942D01*
X181970323Y-66749561D01*
X182065561Y-66797180D01*
X182256038Y-66797180D01*
X182351276Y-66749561D01*
X182398895Y-66701942D01*
X182446514Y-66606704D01*
X182446514Y-66368609D01*
X182398895Y-66273371D01*
X182351276Y-66225752D01*
X182256038Y-66178133D01*
X182065561Y-66178133D01*
X181970323Y-66225752D01*
X181922704Y-66273371D01*
X181875085Y-66368609D01*
%TO.C,C5*%
X170157142Y-68492666D02*
X170204761Y-68540285D01*
X170252380Y-68683142D01*
X170252380Y-68778380D01*
X170204761Y-68921238D01*
X170109523Y-69016476D01*
X170014285Y-69064095D01*
X169823809Y-69111714D01*
X169680952Y-69111714D01*
X169490476Y-69064095D01*
X169395238Y-69016476D01*
X169300000Y-68921238D01*
X169252380Y-68778380D01*
X169252380Y-68683142D01*
X169300000Y-68540285D01*
X169347619Y-68492666D01*
X169252380Y-67587904D02*
X169252380Y-68064095D01*
X169728571Y-68111714D01*
X169680952Y-68064095D01*
X169633333Y-67968857D01*
X169633333Y-67730761D01*
X169680952Y-67635523D01*
X169728571Y-67587904D01*
X169823809Y-67540285D01*
X170061904Y-67540285D01*
X170157142Y-67587904D01*
X170204761Y-67635523D01*
X170252380Y-67730761D01*
X170252380Y-67968857D01*
X170204761Y-68064095D01*
X170157142Y-68111714D01*
%TO.C,C4*%
X170157142Y-72302666D02*
X170204761Y-72350285D01*
X170252380Y-72493142D01*
X170252380Y-72588380D01*
X170204761Y-72731238D01*
X170109523Y-72826476D01*
X170014285Y-72874095D01*
X169823809Y-72921714D01*
X169680952Y-72921714D01*
X169490476Y-72874095D01*
X169395238Y-72826476D01*
X169300000Y-72731238D01*
X169252380Y-72588380D01*
X169252380Y-72493142D01*
X169300000Y-72350285D01*
X169347619Y-72302666D01*
X169585714Y-71445523D02*
X170252380Y-71445523D01*
X169204761Y-71683619D02*
X169919047Y-71921714D01*
X169919047Y-71302666D01*
%TO.C,C3*%
X178903333Y-66651142D02*
X178855714Y-66698761D01*
X178712857Y-66746380D01*
X178617619Y-66746380D01*
X178474761Y-66698761D01*
X178379523Y-66603523D01*
X178331904Y-66508285D01*
X178284285Y-66317809D01*
X178284285Y-66174952D01*
X178331904Y-65984476D01*
X178379523Y-65889238D01*
X178474761Y-65794000D01*
X178617619Y-65746380D01*
X178712857Y-65746380D01*
X178855714Y-65794000D01*
X178903333Y-65841619D01*
X179236666Y-65746380D02*
X179855714Y-65746380D01*
X179522380Y-66127333D01*
X179665238Y-66127333D01*
X179760476Y-66174952D01*
X179808095Y-66222571D01*
X179855714Y-66317809D01*
X179855714Y-66555904D01*
X179808095Y-66651142D01*
X179760476Y-66698761D01*
X179665238Y-66746380D01*
X179379523Y-66746380D01*
X179284285Y-66698761D01*
X179236666Y-66651142D01*
%TO.C,C2*%
X197750133Y-69495942D02*
X197702514Y-69543561D01*
X197559657Y-69591180D01*
X197464419Y-69591180D01*
X197321561Y-69543561D01*
X197226323Y-69448323D01*
X197178704Y-69353085D01*
X197131085Y-69162609D01*
X197131085Y-69019752D01*
X197178704Y-68829276D01*
X197226323Y-68734038D01*
X197321561Y-68638800D01*
X197464419Y-68591180D01*
X197559657Y-68591180D01*
X197702514Y-68638800D01*
X197750133Y-68686419D01*
X198131085Y-68686419D02*
X198178704Y-68638800D01*
X198273942Y-68591180D01*
X198512038Y-68591180D01*
X198607276Y-68638800D01*
X198654895Y-68686419D01*
X198702514Y-68781657D01*
X198702514Y-68876895D01*
X198654895Y-69019752D01*
X198083466Y-69591180D01*
X198702514Y-69591180D01*
%TO.C,C1*%
X180443142Y-74080666D02*
X180490761Y-74128285D01*
X180538380Y-74271142D01*
X180538380Y-74366380D01*
X180490761Y-74509238D01*
X180395523Y-74604476D01*
X180300285Y-74652095D01*
X180109809Y-74699714D01*
X179966952Y-74699714D01*
X179776476Y-74652095D01*
X179681238Y-74604476D01*
X179586000Y-74509238D01*
X179538380Y-74366380D01*
X179538380Y-74271142D01*
X179586000Y-74128285D01*
X179633619Y-74080666D01*
X180538380Y-73128285D02*
X180538380Y-73699714D01*
X180538380Y-73414000D02*
X179538380Y-73414000D01*
X179681238Y-73509238D01*
X179776476Y-73604476D01*
X179824095Y-73699714D01*
%TD*%
M02*
