%TF.GenerationSoftware,KiCad,Pcbnew,(5.1.6)-1*%
%TF.CreationDate,2021-01-04T09:58:51-07:00*%
%TF.ProjectId,R107 AC Controller,52313037-2041-4432-9043-6f6e74726f6c,rev?*%
%TF.SameCoordinates,Original*%
%TF.FileFunction,Soldermask,Top*%
%TF.FilePolarity,Negative*%
%FSLAX46Y46*%
G04 Gerber Fmt 4.6, Leading zero omitted, Abs format (unit mm)*
G04 Created by KiCad (PCBNEW (5.1.6)-1) date 2021-01-04 09:58:51*
%MOMM*%
%LPD*%
G01*
G04 APERTURE LIST*
%ADD10C,1.900000*%
%ADD11R,1.900000X1.900000*%
%ADD12R,7.600000X2.600000*%
%ADD13O,2.600000X2.600000*%
%ADD14R,2.600000X2.600000*%
%ADD15R,1.900000X2.600000*%
%ADD16O,1.800000X1.800000*%
%ADD17R,1.800000X1.800000*%
%ADD18R,2.640000X2.770000*%
%ADD19R,1.370000X0.862000*%
%ADD20R,1.000000X1.300000*%
%ADD21R,1.300000X1.000000*%
%ADD22R,1.600000X2.700000*%
%ADD23R,2.100000X5.600000*%
%ADD24R,0.550000X1.850000*%
%ADD25R,9.500000X10.900000*%
%ADD26R,4.700000X1.200000*%
%ADD27R,1.000000X0.900000*%
%ADD28C,1.000000*%
%ADD29R,0.600000X2.600000*%
%ADD30R,2.100000X2.600000*%
G04 APERTURE END LIST*
D10*
%TO.C,J4*%
X133604000Y-65024000D03*
X138684000Y-65024000D03*
X138684000Y-59944000D03*
X133604000Y-59944000D03*
X133604000Y-54864000D03*
X138684000Y-54864000D03*
D11*
X138684000Y-49784000D03*
X133604000Y-49784000D03*
%TD*%
D10*
%TO.C,J5*%
X133146800Y-71882000D03*
X138226800Y-71882000D03*
D11*
X133146800Y-76962000D03*
X138226800Y-76962000D03*
%TD*%
D10*
%TO.C,J2*%
X138430000Y-43180000D03*
X133350000Y-43180000D03*
D11*
X138430000Y-38100000D03*
X133350000Y-38100000D03*
%TD*%
D10*
%TO.C,J1*%
X138430000Y-31750000D03*
X133350000Y-31750000D03*
D11*
X138430000Y-26670000D03*
X133350000Y-26670000D03*
%TD*%
D12*
%TO.C,L1*%
X182880000Y-50644000D03*
X182880000Y-56544000D03*
%TD*%
D13*
%TO.C,K2*%
X161830000Y-58070000D03*
X149630000Y-58070000D03*
X149630000Y-46070000D03*
X161830000Y-46070000D03*
D14*
X163830000Y-52070000D03*
%TD*%
D13*
%TO.C,K1*%
X161830000Y-39020000D03*
X149630000Y-39020000D03*
X149630000Y-27020000D03*
X161830000Y-27020000D03*
D14*
X163830000Y-33020000D03*
%TD*%
D15*
%TO.C,D4*%
X169672000Y-42132000D03*
X169672000Y-38132000D03*
%TD*%
D16*
%TO.C,JP3*%
X195326000Y-59182000D03*
D17*
X195326000Y-61722000D03*
%TD*%
D18*
%TO.C,D7*%
X193548000Y-33020000D03*
D19*
X193548000Y-35371000D03*
%TD*%
D20*
%TO.C,D6*%
X163704000Y-73406000D03*
X167004000Y-73406000D03*
%TD*%
D21*
%TO.C,D3*%
X159004000Y-62866000D03*
X159004000Y-66166000D03*
%TD*%
D22*
%TO.C,D1*%
X188770000Y-59436000D03*
X191770000Y-59436000D03*
%TD*%
D23*
%TO.C,Y1*%
X175260000Y-77394000D03*
X175260000Y-67894000D03*
%TD*%
D24*
%TO.C,U4*%
X196943000Y-35516000D03*
X197593000Y-35516000D03*
X198243000Y-35516000D03*
X198893000Y-35516000D03*
X199543000Y-35516000D03*
X200193000Y-35516000D03*
X200843000Y-35516000D03*
X201493000Y-35516000D03*
X202143000Y-35516000D03*
X202793000Y-35516000D03*
X203443000Y-35516000D03*
X204093000Y-35516000D03*
X204743000Y-35516000D03*
X205393000Y-35516000D03*
X205393000Y-42716000D03*
X204743000Y-42716000D03*
X204093000Y-42716000D03*
X203443000Y-42716000D03*
X202793000Y-42716000D03*
X202143000Y-42716000D03*
X201493000Y-42716000D03*
X200843000Y-42716000D03*
X200193000Y-42716000D03*
X199543000Y-42716000D03*
X198893000Y-42716000D03*
X198243000Y-42716000D03*
X197593000Y-42716000D03*
X196943000Y-42716000D03*
%TD*%
%TO.C,U3*%
G36*
G01*
X155882000Y-71930000D02*
X155882000Y-71580000D01*
G75*
G02*
X156057000Y-71405000I175000J0D01*
G01*
X157757000Y-71405000D01*
G75*
G02*
X157932000Y-71580000I0J-175000D01*
G01*
X157932000Y-71930000D01*
G75*
G02*
X157757000Y-72105000I-175000J0D01*
G01*
X156057000Y-72105000D01*
G75*
G02*
X155882000Y-71930000I0J175000D01*
G01*
G37*
G36*
G01*
X155882000Y-73200000D02*
X155882000Y-72850000D01*
G75*
G02*
X156057000Y-72675000I175000J0D01*
G01*
X157757000Y-72675000D01*
G75*
G02*
X157932000Y-72850000I0J-175000D01*
G01*
X157932000Y-73200000D01*
G75*
G02*
X157757000Y-73375000I-175000J0D01*
G01*
X156057000Y-73375000D01*
G75*
G02*
X155882000Y-73200000I0J175000D01*
G01*
G37*
G36*
G01*
X155882000Y-74470000D02*
X155882000Y-74120000D01*
G75*
G02*
X156057000Y-73945000I175000J0D01*
G01*
X157757000Y-73945000D01*
G75*
G02*
X157932000Y-74120000I0J-175000D01*
G01*
X157932000Y-74470000D01*
G75*
G02*
X157757000Y-74645000I-175000J0D01*
G01*
X156057000Y-74645000D01*
G75*
G02*
X155882000Y-74470000I0J175000D01*
G01*
G37*
G36*
G01*
X155882000Y-75740000D02*
X155882000Y-75390000D01*
G75*
G02*
X156057000Y-75215000I175000J0D01*
G01*
X157757000Y-75215000D01*
G75*
G02*
X157932000Y-75390000I0J-175000D01*
G01*
X157932000Y-75740000D01*
G75*
G02*
X157757000Y-75915000I-175000J0D01*
G01*
X156057000Y-75915000D01*
G75*
G02*
X155882000Y-75740000I0J175000D01*
G01*
G37*
G36*
G01*
X150932000Y-75740000D02*
X150932000Y-75390000D01*
G75*
G02*
X151107000Y-75215000I175000J0D01*
G01*
X152807000Y-75215000D01*
G75*
G02*
X152982000Y-75390000I0J-175000D01*
G01*
X152982000Y-75740000D01*
G75*
G02*
X152807000Y-75915000I-175000J0D01*
G01*
X151107000Y-75915000D01*
G75*
G02*
X150932000Y-75740000I0J175000D01*
G01*
G37*
G36*
G01*
X150932000Y-74470000D02*
X150932000Y-74120000D01*
G75*
G02*
X151107000Y-73945000I175000J0D01*
G01*
X152807000Y-73945000D01*
G75*
G02*
X152982000Y-74120000I0J-175000D01*
G01*
X152982000Y-74470000D01*
G75*
G02*
X152807000Y-74645000I-175000J0D01*
G01*
X151107000Y-74645000D01*
G75*
G02*
X150932000Y-74470000I0J175000D01*
G01*
G37*
G36*
G01*
X150932000Y-73200000D02*
X150932000Y-72850000D01*
G75*
G02*
X151107000Y-72675000I175000J0D01*
G01*
X152807000Y-72675000D01*
G75*
G02*
X152982000Y-72850000I0J-175000D01*
G01*
X152982000Y-73200000D01*
G75*
G02*
X152807000Y-73375000I-175000J0D01*
G01*
X151107000Y-73375000D01*
G75*
G02*
X150932000Y-73200000I0J175000D01*
G01*
G37*
G36*
G01*
X150932000Y-71930000D02*
X150932000Y-71580000D01*
G75*
G02*
X151107000Y-71405000I175000J0D01*
G01*
X152807000Y-71405000D01*
G75*
G02*
X152982000Y-71580000I0J-175000D01*
G01*
X152982000Y-71930000D01*
G75*
G02*
X152807000Y-72105000I-175000J0D01*
G01*
X151107000Y-72105000D01*
G75*
G02*
X150932000Y-71930000I0J175000D01*
G01*
G37*
%TD*%
D25*
%TO.C,U2*%
X184797000Y-42945000D03*
D26*
X175647000Y-46345000D03*
X175647000Y-44645000D03*
X175647000Y-42945000D03*
X175647000Y-41245000D03*
X175647000Y-39545000D03*
%TD*%
%TO.C,U1*%
G36*
G01*
X184860000Y-65817000D02*
X184860000Y-64517000D01*
G75*
G02*
X185010000Y-64367000I150000J0D01*
G01*
X185310000Y-64367000D01*
G75*
G02*
X185460000Y-64517000I0J-150000D01*
G01*
X185460000Y-65817000D01*
G75*
G02*
X185310000Y-65967000I-150000J0D01*
G01*
X185010000Y-65967000D01*
G75*
G02*
X184860000Y-65817000I0J150000D01*
G01*
G37*
G36*
G01*
X185660000Y-65817000D02*
X185660000Y-64517000D01*
G75*
G02*
X185810000Y-64367000I150000J0D01*
G01*
X186110000Y-64367000D01*
G75*
G02*
X186260000Y-64517000I0J-150000D01*
G01*
X186260000Y-65817000D01*
G75*
G02*
X186110000Y-65967000I-150000J0D01*
G01*
X185810000Y-65967000D01*
G75*
G02*
X185660000Y-65817000I0J150000D01*
G01*
G37*
G36*
G01*
X186460000Y-65817000D02*
X186460000Y-64517000D01*
G75*
G02*
X186610000Y-64367000I150000J0D01*
G01*
X186910000Y-64367000D01*
G75*
G02*
X187060000Y-64517000I0J-150000D01*
G01*
X187060000Y-65817000D01*
G75*
G02*
X186910000Y-65967000I-150000J0D01*
G01*
X186610000Y-65967000D01*
G75*
G02*
X186460000Y-65817000I0J150000D01*
G01*
G37*
G36*
G01*
X187260000Y-65817000D02*
X187260000Y-64517000D01*
G75*
G02*
X187410000Y-64367000I150000J0D01*
G01*
X187710000Y-64367000D01*
G75*
G02*
X187860000Y-64517000I0J-150000D01*
G01*
X187860000Y-65817000D01*
G75*
G02*
X187710000Y-65967000I-150000J0D01*
G01*
X187410000Y-65967000D01*
G75*
G02*
X187260000Y-65817000I0J150000D01*
G01*
G37*
G36*
G01*
X188060000Y-65817000D02*
X188060000Y-64517000D01*
G75*
G02*
X188210000Y-64367000I150000J0D01*
G01*
X188510000Y-64367000D01*
G75*
G02*
X188660000Y-64517000I0J-150000D01*
G01*
X188660000Y-65817000D01*
G75*
G02*
X188510000Y-65967000I-150000J0D01*
G01*
X188210000Y-65967000D01*
G75*
G02*
X188060000Y-65817000I0J150000D01*
G01*
G37*
G36*
G01*
X188860000Y-65817000D02*
X188860000Y-64517000D01*
G75*
G02*
X189010000Y-64367000I150000J0D01*
G01*
X189310000Y-64367000D01*
G75*
G02*
X189460000Y-64517000I0J-150000D01*
G01*
X189460000Y-65817000D01*
G75*
G02*
X189310000Y-65967000I-150000J0D01*
G01*
X189010000Y-65967000D01*
G75*
G02*
X188860000Y-65817000I0J150000D01*
G01*
G37*
G36*
G01*
X189660000Y-65817000D02*
X189660000Y-64517000D01*
G75*
G02*
X189810000Y-64367000I150000J0D01*
G01*
X190110000Y-64367000D01*
G75*
G02*
X190260000Y-64517000I0J-150000D01*
G01*
X190260000Y-65817000D01*
G75*
G02*
X190110000Y-65967000I-150000J0D01*
G01*
X189810000Y-65967000D01*
G75*
G02*
X189660000Y-65817000I0J150000D01*
G01*
G37*
G36*
G01*
X190460000Y-65817000D02*
X190460000Y-64517000D01*
G75*
G02*
X190610000Y-64367000I150000J0D01*
G01*
X190910000Y-64367000D01*
G75*
G02*
X191060000Y-64517000I0J-150000D01*
G01*
X191060000Y-65817000D01*
G75*
G02*
X190910000Y-65967000I-150000J0D01*
G01*
X190610000Y-65967000D01*
G75*
G02*
X190460000Y-65817000I0J150000D01*
G01*
G37*
G36*
G01*
X191335000Y-66692000D02*
X191335000Y-66392000D01*
G75*
G02*
X191485000Y-66242000I150000J0D01*
G01*
X192785000Y-66242000D01*
G75*
G02*
X192935000Y-66392000I0J-150000D01*
G01*
X192935000Y-66692000D01*
G75*
G02*
X192785000Y-66842000I-150000J0D01*
G01*
X191485000Y-66842000D01*
G75*
G02*
X191335000Y-66692000I0J150000D01*
G01*
G37*
G36*
G01*
X191335000Y-67492000D02*
X191335000Y-67192000D01*
G75*
G02*
X191485000Y-67042000I150000J0D01*
G01*
X192785000Y-67042000D01*
G75*
G02*
X192935000Y-67192000I0J-150000D01*
G01*
X192935000Y-67492000D01*
G75*
G02*
X192785000Y-67642000I-150000J0D01*
G01*
X191485000Y-67642000D01*
G75*
G02*
X191335000Y-67492000I0J150000D01*
G01*
G37*
G36*
G01*
X191335000Y-68292000D02*
X191335000Y-67992000D01*
G75*
G02*
X191485000Y-67842000I150000J0D01*
G01*
X192785000Y-67842000D01*
G75*
G02*
X192935000Y-67992000I0J-150000D01*
G01*
X192935000Y-68292000D01*
G75*
G02*
X192785000Y-68442000I-150000J0D01*
G01*
X191485000Y-68442000D01*
G75*
G02*
X191335000Y-68292000I0J150000D01*
G01*
G37*
G36*
G01*
X191335000Y-69092000D02*
X191335000Y-68792000D01*
G75*
G02*
X191485000Y-68642000I150000J0D01*
G01*
X192785000Y-68642000D01*
G75*
G02*
X192935000Y-68792000I0J-150000D01*
G01*
X192935000Y-69092000D01*
G75*
G02*
X192785000Y-69242000I-150000J0D01*
G01*
X191485000Y-69242000D01*
G75*
G02*
X191335000Y-69092000I0J150000D01*
G01*
G37*
G36*
G01*
X191335000Y-69892000D02*
X191335000Y-69592000D01*
G75*
G02*
X191485000Y-69442000I150000J0D01*
G01*
X192785000Y-69442000D01*
G75*
G02*
X192935000Y-69592000I0J-150000D01*
G01*
X192935000Y-69892000D01*
G75*
G02*
X192785000Y-70042000I-150000J0D01*
G01*
X191485000Y-70042000D01*
G75*
G02*
X191335000Y-69892000I0J150000D01*
G01*
G37*
G36*
G01*
X191335000Y-70692000D02*
X191335000Y-70392000D01*
G75*
G02*
X191485000Y-70242000I150000J0D01*
G01*
X192785000Y-70242000D01*
G75*
G02*
X192935000Y-70392000I0J-150000D01*
G01*
X192935000Y-70692000D01*
G75*
G02*
X192785000Y-70842000I-150000J0D01*
G01*
X191485000Y-70842000D01*
G75*
G02*
X191335000Y-70692000I0J150000D01*
G01*
G37*
G36*
G01*
X191335000Y-71492000D02*
X191335000Y-71192000D01*
G75*
G02*
X191485000Y-71042000I150000J0D01*
G01*
X192785000Y-71042000D01*
G75*
G02*
X192935000Y-71192000I0J-150000D01*
G01*
X192935000Y-71492000D01*
G75*
G02*
X192785000Y-71642000I-150000J0D01*
G01*
X191485000Y-71642000D01*
G75*
G02*
X191335000Y-71492000I0J150000D01*
G01*
G37*
G36*
G01*
X191335000Y-72292000D02*
X191335000Y-71992000D01*
G75*
G02*
X191485000Y-71842000I150000J0D01*
G01*
X192785000Y-71842000D01*
G75*
G02*
X192935000Y-71992000I0J-150000D01*
G01*
X192935000Y-72292000D01*
G75*
G02*
X192785000Y-72442000I-150000J0D01*
G01*
X191485000Y-72442000D01*
G75*
G02*
X191335000Y-72292000I0J150000D01*
G01*
G37*
G36*
G01*
X190460000Y-74167000D02*
X190460000Y-72867000D01*
G75*
G02*
X190610000Y-72717000I150000J0D01*
G01*
X190910000Y-72717000D01*
G75*
G02*
X191060000Y-72867000I0J-150000D01*
G01*
X191060000Y-74167000D01*
G75*
G02*
X190910000Y-74317000I-150000J0D01*
G01*
X190610000Y-74317000D01*
G75*
G02*
X190460000Y-74167000I0J150000D01*
G01*
G37*
G36*
G01*
X189660000Y-74167000D02*
X189660000Y-72867000D01*
G75*
G02*
X189810000Y-72717000I150000J0D01*
G01*
X190110000Y-72717000D01*
G75*
G02*
X190260000Y-72867000I0J-150000D01*
G01*
X190260000Y-74167000D01*
G75*
G02*
X190110000Y-74317000I-150000J0D01*
G01*
X189810000Y-74317000D01*
G75*
G02*
X189660000Y-74167000I0J150000D01*
G01*
G37*
G36*
G01*
X188860000Y-74167000D02*
X188860000Y-72867000D01*
G75*
G02*
X189010000Y-72717000I150000J0D01*
G01*
X189310000Y-72717000D01*
G75*
G02*
X189460000Y-72867000I0J-150000D01*
G01*
X189460000Y-74167000D01*
G75*
G02*
X189310000Y-74317000I-150000J0D01*
G01*
X189010000Y-74317000D01*
G75*
G02*
X188860000Y-74167000I0J150000D01*
G01*
G37*
G36*
G01*
X188060000Y-74167000D02*
X188060000Y-72867000D01*
G75*
G02*
X188210000Y-72717000I150000J0D01*
G01*
X188510000Y-72717000D01*
G75*
G02*
X188660000Y-72867000I0J-150000D01*
G01*
X188660000Y-74167000D01*
G75*
G02*
X188510000Y-74317000I-150000J0D01*
G01*
X188210000Y-74317000D01*
G75*
G02*
X188060000Y-74167000I0J150000D01*
G01*
G37*
G36*
G01*
X187260000Y-74167000D02*
X187260000Y-72867000D01*
G75*
G02*
X187410000Y-72717000I150000J0D01*
G01*
X187710000Y-72717000D01*
G75*
G02*
X187860000Y-72867000I0J-150000D01*
G01*
X187860000Y-74167000D01*
G75*
G02*
X187710000Y-74317000I-150000J0D01*
G01*
X187410000Y-74317000D01*
G75*
G02*
X187260000Y-74167000I0J150000D01*
G01*
G37*
G36*
G01*
X186460000Y-74167000D02*
X186460000Y-72867000D01*
G75*
G02*
X186610000Y-72717000I150000J0D01*
G01*
X186910000Y-72717000D01*
G75*
G02*
X187060000Y-72867000I0J-150000D01*
G01*
X187060000Y-74167000D01*
G75*
G02*
X186910000Y-74317000I-150000J0D01*
G01*
X186610000Y-74317000D01*
G75*
G02*
X186460000Y-74167000I0J150000D01*
G01*
G37*
G36*
G01*
X185660000Y-74167000D02*
X185660000Y-72867000D01*
G75*
G02*
X185810000Y-72717000I150000J0D01*
G01*
X186110000Y-72717000D01*
G75*
G02*
X186260000Y-72867000I0J-150000D01*
G01*
X186260000Y-74167000D01*
G75*
G02*
X186110000Y-74317000I-150000J0D01*
G01*
X185810000Y-74317000D01*
G75*
G02*
X185660000Y-74167000I0J150000D01*
G01*
G37*
G36*
G01*
X184860000Y-74167000D02*
X184860000Y-72867000D01*
G75*
G02*
X185010000Y-72717000I150000J0D01*
G01*
X185310000Y-72717000D01*
G75*
G02*
X185460000Y-72867000I0J-150000D01*
G01*
X185460000Y-74167000D01*
G75*
G02*
X185310000Y-74317000I-150000J0D01*
G01*
X185010000Y-74317000D01*
G75*
G02*
X184860000Y-74167000I0J150000D01*
G01*
G37*
G36*
G01*
X182985000Y-72292000D02*
X182985000Y-71992000D01*
G75*
G02*
X183135000Y-71842000I150000J0D01*
G01*
X184435000Y-71842000D01*
G75*
G02*
X184585000Y-71992000I0J-150000D01*
G01*
X184585000Y-72292000D01*
G75*
G02*
X184435000Y-72442000I-150000J0D01*
G01*
X183135000Y-72442000D01*
G75*
G02*
X182985000Y-72292000I0J150000D01*
G01*
G37*
G36*
G01*
X182985000Y-71492000D02*
X182985000Y-71192000D01*
G75*
G02*
X183135000Y-71042000I150000J0D01*
G01*
X184435000Y-71042000D01*
G75*
G02*
X184585000Y-71192000I0J-150000D01*
G01*
X184585000Y-71492000D01*
G75*
G02*
X184435000Y-71642000I-150000J0D01*
G01*
X183135000Y-71642000D01*
G75*
G02*
X182985000Y-71492000I0J150000D01*
G01*
G37*
G36*
G01*
X182985000Y-70692000D02*
X182985000Y-70392000D01*
G75*
G02*
X183135000Y-70242000I150000J0D01*
G01*
X184435000Y-70242000D01*
G75*
G02*
X184585000Y-70392000I0J-150000D01*
G01*
X184585000Y-70692000D01*
G75*
G02*
X184435000Y-70842000I-150000J0D01*
G01*
X183135000Y-70842000D01*
G75*
G02*
X182985000Y-70692000I0J150000D01*
G01*
G37*
G36*
G01*
X182985000Y-69892000D02*
X182985000Y-69592000D01*
G75*
G02*
X183135000Y-69442000I150000J0D01*
G01*
X184435000Y-69442000D01*
G75*
G02*
X184585000Y-69592000I0J-150000D01*
G01*
X184585000Y-69892000D01*
G75*
G02*
X184435000Y-70042000I-150000J0D01*
G01*
X183135000Y-70042000D01*
G75*
G02*
X182985000Y-69892000I0J150000D01*
G01*
G37*
G36*
G01*
X182985000Y-69092000D02*
X182985000Y-68792000D01*
G75*
G02*
X183135000Y-68642000I150000J0D01*
G01*
X184435000Y-68642000D01*
G75*
G02*
X184585000Y-68792000I0J-150000D01*
G01*
X184585000Y-69092000D01*
G75*
G02*
X184435000Y-69242000I-150000J0D01*
G01*
X183135000Y-69242000D01*
G75*
G02*
X182985000Y-69092000I0J150000D01*
G01*
G37*
G36*
G01*
X182985000Y-68292000D02*
X182985000Y-67992000D01*
G75*
G02*
X183135000Y-67842000I150000J0D01*
G01*
X184435000Y-67842000D01*
G75*
G02*
X184585000Y-67992000I0J-150000D01*
G01*
X184585000Y-68292000D01*
G75*
G02*
X184435000Y-68442000I-150000J0D01*
G01*
X183135000Y-68442000D01*
G75*
G02*
X182985000Y-68292000I0J150000D01*
G01*
G37*
G36*
G01*
X182985000Y-67492000D02*
X182985000Y-67192000D01*
G75*
G02*
X183135000Y-67042000I150000J0D01*
G01*
X184435000Y-67042000D01*
G75*
G02*
X184585000Y-67192000I0J-150000D01*
G01*
X184585000Y-67492000D01*
G75*
G02*
X184435000Y-67642000I-150000J0D01*
G01*
X183135000Y-67642000D01*
G75*
G02*
X182985000Y-67492000I0J150000D01*
G01*
G37*
G36*
G01*
X182985000Y-66692000D02*
X182985000Y-66392000D01*
G75*
G02*
X183135000Y-66242000I150000J0D01*
G01*
X184435000Y-66242000D01*
G75*
G02*
X184585000Y-66392000I0J-150000D01*
G01*
X184585000Y-66692000D01*
G75*
G02*
X184435000Y-66842000I-150000J0D01*
G01*
X183135000Y-66842000D01*
G75*
G02*
X182985000Y-66692000I0J150000D01*
G01*
G37*
%TD*%
%TO.C,R11*%
G36*
G01*
X160755250Y-72498000D02*
X159792750Y-72498000D01*
G75*
G02*
X159524000Y-72229250I0J268750D01*
G01*
X159524000Y-71691750D01*
G75*
G02*
X159792750Y-71423000I268750J0D01*
G01*
X160755250Y-71423000D01*
G75*
G02*
X161024000Y-71691750I0J-268750D01*
G01*
X161024000Y-72229250D01*
G75*
G02*
X160755250Y-72498000I-268750J0D01*
G01*
G37*
G36*
G01*
X160755250Y-74373000D02*
X159792750Y-74373000D01*
G75*
G02*
X159524000Y-74104250I0J268750D01*
G01*
X159524000Y-73566750D01*
G75*
G02*
X159792750Y-73298000I268750J0D01*
G01*
X160755250Y-73298000D01*
G75*
G02*
X161024000Y-73566750I0J-268750D01*
G01*
X161024000Y-74104250D01*
G75*
G02*
X160755250Y-74373000I-268750J0D01*
G01*
G37*
%TD*%
%TO.C,R10*%
G36*
G01*
X159792750Y-77616000D02*
X160755250Y-77616000D01*
G75*
G02*
X161024000Y-77884750I0J-268750D01*
G01*
X161024000Y-78422250D01*
G75*
G02*
X160755250Y-78691000I-268750J0D01*
G01*
X159792750Y-78691000D01*
G75*
G02*
X159524000Y-78422250I0J268750D01*
G01*
X159524000Y-77884750D01*
G75*
G02*
X159792750Y-77616000I268750J0D01*
G01*
G37*
G36*
G01*
X159792750Y-75741000D02*
X160755250Y-75741000D01*
G75*
G02*
X161024000Y-76009750I0J-268750D01*
G01*
X161024000Y-76547250D01*
G75*
G02*
X160755250Y-76816000I-268750J0D01*
G01*
X159792750Y-76816000D01*
G75*
G02*
X159524000Y-76547250I0J268750D01*
G01*
X159524000Y-76009750D01*
G75*
G02*
X159792750Y-75741000I268750J0D01*
G01*
G37*
%TD*%
%TO.C,R9*%
G36*
G01*
X195045250Y-49130000D02*
X194082750Y-49130000D01*
G75*
G02*
X193814000Y-48861250I0J268750D01*
G01*
X193814000Y-48323750D01*
G75*
G02*
X194082750Y-48055000I268750J0D01*
G01*
X195045250Y-48055000D01*
G75*
G02*
X195314000Y-48323750I0J-268750D01*
G01*
X195314000Y-48861250D01*
G75*
G02*
X195045250Y-49130000I-268750J0D01*
G01*
G37*
G36*
G01*
X195045250Y-51005000D02*
X194082750Y-51005000D01*
G75*
G02*
X193814000Y-50736250I0J268750D01*
G01*
X193814000Y-50198750D01*
G75*
G02*
X194082750Y-49930000I268750J0D01*
G01*
X195045250Y-49930000D01*
G75*
G02*
X195314000Y-50198750I0J-268750D01*
G01*
X195314000Y-50736250D01*
G75*
G02*
X195045250Y-51005000I-268750J0D01*
G01*
G37*
%TD*%
%TO.C,R8*%
G36*
G01*
X198347250Y-49130000D02*
X197384750Y-49130000D01*
G75*
G02*
X197116000Y-48861250I0J268750D01*
G01*
X197116000Y-48323750D01*
G75*
G02*
X197384750Y-48055000I268750J0D01*
G01*
X198347250Y-48055000D01*
G75*
G02*
X198616000Y-48323750I0J-268750D01*
G01*
X198616000Y-48861250D01*
G75*
G02*
X198347250Y-49130000I-268750J0D01*
G01*
G37*
G36*
G01*
X198347250Y-51005000D02*
X197384750Y-51005000D01*
G75*
G02*
X197116000Y-50736250I0J268750D01*
G01*
X197116000Y-50198750D01*
G75*
G02*
X197384750Y-49930000I268750J0D01*
G01*
X198347250Y-49930000D01*
G75*
G02*
X198616000Y-50198750I0J-268750D01*
G01*
X198616000Y-50736250D01*
G75*
G02*
X198347250Y-51005000I-268750J0D01*
G01*
G37*
%TD*%
%TO.C,R7*%
G36*
G01*
X188438500Y-76427250D02*
X188438500Y-75464750D01*
G75*
G02*
X188707250Y-75196000I268750J0D01*
G01*
X189244750Y-75196000D01*
G75*
G02*
X189513500Y-75464750I0J-268750D01*
G01*
X189513500Y-76427250D01*
G75*
G02*
X189244750Y-76696000I-268750J0D01*
G01*
X188707250Y-76696000D01*
G75*
G02*
X188438500Y-76427250I0J268750D01*
G01*
G37*
G36*
G01*
X186563500Y-76427250D02*
X186563500Y-75464750D01*
G75*
G02*
X186832250Y-75196000I268750J0D01*
G01*
X187369750Y-75196000D01*
G75*
G02*
X187638500Y-75464750I0J-268750D01*
G01*
X187638500Y-76427250D01*
G75*
G02*
X187369750Y-76696000I-268750J0D01*
G01*
X186832250Y-76696000D01*
G75*
G02*
X186563500Y-76427250I0J268750D01*
G01*
G37*
%TD*%
%TO.C,R6*%
G36*
G01*
X167105250Y-62592000D02*
X166142750Y-62592000D01*
G75*
G02*
X165874000Y-62323250I0J268750D01*
G01*
X165874000Y-61785750D01*
G75*
G02*
X166142750Y-61517000I268750J0D01*
G01*
X167105250Y-61517000D01*
G75*
G02*
X167374000Y-61785750I0J-268750D01*
G01*
X167374000Y-62323250D01*
G75*
G02*
X167105250Y-62592000I-268750J0D01*
G01*
G37*
G36*
G01*
X167105250Y-64467000D02*
X166142750Y-64467000D01*
G75*
G02*
X165874000Y-64198250I0J268750D01*
G01*
X165874000Y-63660750D01*
G75*
G02*
X166142750Y-63392000I268750J0D01*
G01*
X167105250Y-63392000D01*
G75*
G02*
X167374000Y-63660750I0J-268750D01*
G01*
X167374000Y-64198250D01*
G75*
G02*
X167105250Y-64467000I-268750J0D01*
G01*
G37*
%TD*%
%TO.C,R5*%
G36*
G01*
X153897250Y-62592000D02*
X152934750Y-62592000D01*
G75*
G02*
X152666000Y-62323250I0J268750D01*
G01*
X152666000Y-61785750D01*
G75*
G02*
X152934750Y-61517000I268750J0D01*
G01*
X153897250Y-61517000D01*
G75*
G02*
X154166000Y-61785750I0J-268750D01*
G01*
X154166000Y-62323250D01*
G75*
G02*
X153897250Y-62592000I-268750J0D01*
G01*
G37*
G36*
G01*
X153897250Y-64467000D02*
X152934750Y-64467000D01*
G75*
G02*
X152666000Y-64198250I0J268750D01*
G01*
X152666000Y-63660750D01*
G75*
G02*
X152934750Y-63392000I268750J0D01*
G01*
X153897250Y-63392000D01*
G75*
G02*
X154166000Y-63660750I0J-268750D01*
G01*
X154166000Y-64198250D01*
G75*
G02*
X153897250Y-64467000I-268750J0D01*
G01*
G37*
%TD*%
%TO.C,R4*%
G36*
G01*
X166732000Y-66066750D02*
X166732000Y-67029250D01*
G75*
G02*
X166463250Y-67298000I-268750J0D01*
G01*
X165925750Y-67298000D01*
G75*
G02*
X165657000Y-67029250I0J268750D01*
G01*
X165657000Y-66066750D01*
G75*
G02*
X165925750Y-65798000I268750J0D01*
G01*
X166463250Y-65798000D01*
G75*
G02*
X166732000Y-66066750I0J-268750D01*
G01*
G37*
G36*
G01*
X168607000Y-66066750D02*
X168607000Y-67029250D01*
G75*
G02*
X168338250Y-67298000I-268750J0D01*
G01*
X167800750Y-67298000D01*
G75*
G02*
X167532000Y-67029250I0J268750D01*
G01*
X167532000Y-66066750D01*
G75*
G02*
X167800750Y-65798000I268750J0D01*
G01*
X168338250Y-65798000D01*
G75*
G02*
X168607000Y-66066750I0J-268750D01*
G01*
G37*
%TD*%
%TO.C,R3*%
G36*
G01*
X153524000Y-66066750D02*
X153524000Y-67029250D01*
G75*
G02*
X153255250Y-67298000I-268750J0D01*
G01*
X152717750Y-67298000D01*
G75*
G02*
X152449000Y-67029250I0J268750D01*
G01*
X152449000Y-66066750D01*
G75*
G02*
X152717750Y-65798000I268750J0D01*
G01*
X153255250Y-65798000D01*
G75*
G02*
X153524000Y-66066750I0J-268750D01*
G01*
G37*
G36*
G01*
X155399000Y-66066750D02*
X155399000Y-67029250D01*
G75*
G02*
X155130250Y-67298000I-268750J0D01*
G01*
X154592750Y-67298000D01*
G75*
G02*
X154324000Y-67029250I0J268750D01*
G01*
X154324000Y-66066750D01*
G75*
G02*
X154592750Y-65798000I268750J0D01*
G01*
X155130250Y-65798000D01*
G75*
G02*
X155399000Y-66066750I0J-268750D01*
G01*
G37*
%TD*%
%TO.C,R2*%
G36*
G01*
X190686500Y-62256750D02*
X190686500Y-63219250D01*
G75*
G02*
X190417750Y-63488000I-268750J0D01*
G01*
X189880250Y-63488000D01*
G75*
G02*
X189611500Y-63219250I0J268750D01*
G01*
X189611500Y-62256750D01*
G75*
G02*
X189880250Y-61988000I268750J0D01*
G01*
X190417750Y-61988000D01*
G75*
G02*
X190686500Y-62256750I0J-268750D01*
G01*
G37*
G36*
G01*
X192561500Y-62256750D02*
X192561500Y-63219250D01*
G75*
G02*
X192292750Y-63488000I-268750J0D01*
G01*
X191755250Y-63488000D01*
G75*
G02*
X191486500Y-63219250I0J268750D01*
G01*
X191486500Y-62256750D01*
G75*
G02*
X191755250Y-61988000I268750J0D01*
G01*
X192292750Y-61988000D01*
G75*
G02*
X192561500Y-62256750I0J-268750D01*
G01*
G37*
%TD*%
%TO.C,R1*%
G36*
G01*
X186836000Y-63219250D02*
X186836000Y-62256750D01*
G75*
G02*
X187104750Y-61988000I268750J0D01*
G01*
X187642250Y-61988000D01*
G75*
G02*
X187911000Y-62256750I0J-268750D01*
G01*
X187911000Y-63219250D01*
G75*
G02*
X187642250Y-63488000I-268750J0D01*
G01*
X187104750Y-63488000D01*
G75*
G02*
X186836000Y-63219250I0J268750D01*
G01*
G37*
G36*
G01*
X184961000Y-63219250D02*
X184961000Y-62256750D01*
G75*
G02*
X185229750Y-61988000I268750J0D01*
G01*
X185767250Y-61988000D01*
G75*
G02*
X186036000Y-62256750I0J-268750D01*
G01*
X186036000Y-63219250D01*
G75*
G02*
X185767250Y-63488000I-268750J0D01*
G01*
X185229750Y-63488000D01*
G75*
G02*
X184961000Y-63219250I0J268750D01*
G01*
G37*
%TD*%
D27*
%TO.C,Q2*%
X161560000Y-62992000D03*
X163560000Y-62042000D03*
X163560000Y-63942000D03*
%TD*%
%TO.C,Q1*%
X148352000Y-62992000D03*
X150352000Y-62042000D03*
X150352000Y-63942000D03*
%TD*%
D16*
%TO.C,JP2*%
X199390000Y-59182000D03*
D17*
X199390000Y-61722000D03*
%TD*%
D16*
%TO.C,JP1*%
X194564000Y-53594000D03*
D17*
X197104000Y-53594000D03*
%TD*%
D16*
%TO.C,J7*%
X202946000Y-73406000D03*
X202946000Y-75946000D03*
X200406000Y-73406000D03*
X200406000Y-75946000D03*
X197866000Y-73406000D03*
D17*
X197866000Y-75946000D03*
%TD*%
D28*
%TO.C,J6*%
X186522000Y-25146000D03*
X190922000Y-25146000D03*
D29*
X187122000Y-27746000D03*
X187922000Y-27746000D03*
X188722000Y-27746000D03*
X189522000Y-27746000D03*
X190322000Y-27746000D03*
D30*
X184322000Y-27746000D03*
X193122000Y-27746000D03*
X184322000Y-22246000D03*
X193122000Y-22246000D03*
%TD*%
D16*
%TO.C,J3*%
X202946000Y-80772000D03*
X200406000Y-80772000D03*
X197866000Y-80772000D03*
X195326000Y-80772000D03*
X192786000Y-80772000D03*
X190246000Y-80772000D03*
D17*
X187706000Y-80772000D03*
%TD*%
%TO.C,FB2*%
G36*
G01*
X143148000Y-71601250D02*
X143148000Y-70638750D01*
G75*
G02*
X143416750Y-70370000I268750J0D01*
G01*
X143954250Y-70370000D01*
G75*
G02*
X144223000Y-70638750I0J-268750D01*
G01*
X144223000Y-71601250D01*
G75*
G02*
X143954250Y-71870000I-268750J0D01*
G01*
X143416750Y-71870000D01*
G75*
G02*
X143148000Y-71601250I0J268750D01*
G01*
G37*
G36*
G01*
X141273000Y-71601250D02*
X141273000Y-70638750D01*
G75*
G02*
X141541750Y-70370000I268750J0D01*
G01*
X142079250Y-70370000D01*
G75*
G02*
X142348000Y-70638750I0J-268750D01*
G01*
X142348000Y-71601250D01*
G75*
G02*
X142079250Y-71870000I-268750J0D01*
G01*
X141541750Y-71870000D01*
G75*
G02*
X141273000Y-71601250I0J268750D01*
G01*
G37*
%TD*%
%TO.C,FB1*%
G36*
G01*
X143148000Y-74141250D02*
X143148000Y-73178750D01*
G75*
G02*
X143416750Y-72910000I268750J0D01*
G01*
X143954250Y-72910000D01*
G75*
G02*
X144223000Y-73178750I0J-268750D01*
G01*
X144223000Y-74141250D01*
G75*
G02*
X143954250Y-74410000I-268750J0D01*
G01*
X143416750Y-74410000D01*
G75*
G02*
X143148000Y-74141250I0J268750D01*
G01*
G37*
G36*
G01*
X141273000Y-74141250D02*
X141273000Y-73178750D01*
G75*
G02*
X141541750Y-72910000I268750J0D01*
G01*
X142079250Y-72910000D01*
G75*
G02*
X142348000Y-73178750I0J-268750D01*
G01*
X142348000Y-74141250D01*
G75*
G02*
X142079250Y-74410000I-268750J0D01*
G01*
X141541750Y-74410000D01*
G75*
G02*
X141273000Y-74141250I0J268750D01*
G01*
G37*
%TD*%
D20*
%TO.C,D5*%
X163704000Y-76708000D03*
X167004000Y-76708000D03*
%TD*%
D21*
%TO.C,D2*%
X145796000Y-62866000D03*
X145796000Y-66166000D03*
%TD*%
%TO.C,C15*%
G36*
G01*
X197290500Y-31014750D02*
X197290500Y-31977250D01*
G75*
G02*
X197021750Y-32246000I-268750J0D01*
G01*
X196484250Y-32246000D01*
G75*
G02*
X196215500Y-31977250I0J268750D01*
G01*
X196215500Y-31014750D01*
G75*
G02*
X196484250Y-30746000I268750J0D01*
G01*
X197021750Y-30746000D01*
G75*
G02*
X197290500Y-31014750I0J-268750D01*
G01*
G37*
G36*
G01*
X199165500Y-31014750D02*
X199165500Y-31977250D01*
G75*
G02*
X198896750Y-32246000I-268750J0D01*
G01*
X198359250Y-32246000D01*
G75*
G02*
X198090500Y-31977250I0J268750D01*
G01*
X198090500Y-31014750D01*
G75*
G02*
X198359250Y-30746000I268750J0D01*
G01*
X198896750Y-30746000D01*
G75*
G02*
X199165500Y-31014750I0J-268750D01*
G01*
G37*
%TD*%
%TO.C,C14*%
G36*
G01*
X202126000Y-28016375D02*
X202126000Y-26847625D01*
G75*
G02*
X202391625Y-26582000I265625J0D01*
G01*
X204560375Y-26582000D01*
G75*
G02*
X204826000Y-26847625I0J-265625D01*
G01*
X204826000Y-28016375D01*
G75*
G02*
X204560375Y-28282000I-265625J0D01*
G01*
X202391625Y-28282000D01*
G75*
G02*
X202126000Y-28016375I0J265625D01*
G01*
G37*
G36*
G01*
X198526000Y-28016375D02*
X198526000Y-26847625D01*
G75*
G02*
X198791625Y-26582000I265625J0D01*
G01*
X200960375Y-26582000D01*
G75*
G02*
X201226000Y-26847625I0J-265625D01*
G01*
X201226000Y-28016375D01*
G75*
G02*
X200960375Y-28282000I-265625J0D01*
G01*
X198791625Y-28282000D01*
G75*
G02*
X198526000Y-28016375I0J265625D01*
G01*
G37*
%TD*%
%TO.C,C13*%
G36*
G01*
X198228000Y-45238750D02*
X198228000Y-46201250D01*
G75*
G02*
X197959250Y-46470000I-268750J0D01*
G01*
X197421750Y-46470000D01*
G75*
G02*
X197153000Y-46201250I0J268750D01*
G01*
X197153000Y-45238750D01*
G75*
G02*
X197421750Y-44970000I268750J0D01*
G01*
X197959250Y-44970000D01*
G75*
G02*
X198228000Y-45238750I0J-268750D01*
G01*
G37*
G36*
G01*
X200103000Y-45238750D02*
X200103000Y-46201250D01*
G75*
G02*
X199834250Y-46470000I-268750J0D01*
G01*
X199296750Y-46470000D01*
G75*
G02*
X199028000Y-46201250I0J268750D01*
G01*
X199028000Y-45238750D01*
G75*
G02*
X199296750Y-44970000I268750J0D01*
G01*
X199834250Y-44970000D01*
G75*
G02*
X200103000Y-45238750I0J-268750D01*
G01*
G37*
%TD*%
%TO.C,C12*%
G36*
G01*
X172696000Y-56374000D02*
X174776000Y-56374000D01*
G75*
G02*
X175036000Y-56634000I0J-260000D01*
G01*
X175036000Y-60214000D01*
G75*
G02*
X174776000Y-60474000I-260000J0D01*
G01*
X172696000Y-60474000D01*
G75*
G02*
X172436000Y-60214000I0J260000D01*
G01*
X172436000Y-56634000D01*
G75*
G02*
X172696000Y-56374000I260000J0D01*
G01*
G37*
G36*
G01*
X172696000Y-50274000D02*
X174776000Y-50274000D01*
G75*
G02*
X175036000Y-50534000I0J-260000D01*
G01*
X175036000Y-54114000D01*
G75*
G02*
X174776000Y-54374000I-260000J0D01*
G01*
X172696000Y-54374000D01*
G75*
G02*
X172436000Y-54114000I0J260000D01*
G01*
X172436000Y-50534000D01*
G75*
G02*
X172696000Y-50274000I260000J0D01*
G01*
G37*
%TD*%
%TO.C,C11*%
G36*
G01*
X152831625Y-80714000D02*
X154000375Y-80714000D01*
G75*
G02*
X154266000Y-80979625I0J-265625D01*
G01*
X154266000Y-83148375D01*
G75*
G02*
X154000375Y-83414000I-265625J0D01*
G01*
X152831625Y-83414000D01*
G75*
G02*
X152566000Y-83148375I0J265625D01*
G01*
X152566000Y-80979625D01*
G75*
G02*
X152831625Y-80714000I265625J0D01*
G01*
G37*
G36*
G01*
X152831625Y-77114000D02*
X154000375Y-77114000D01*
G75*
G02*
X154266000Y-77379625I0J-265625D01*
G01*
X154266000Y-79548375D01*
G75*
G02*
X154000375Y-79814000I-265625J0D01*
G01*
X152831625Y-79814000D01*
G75*
G02*
X152566000Y-79548375I0J265625D01*
G01*
X152566000Y-77379625D01*
G75*
G02*
X152831625Y-77114000I265625J0D01*
G01*
G37*
%TD*%
%TO.C,C10*%
G36*
G01*
X146227625Y-78682000D02*
X147396375Y-78682000D01*
G75*
G02*
X147662000Y-78947625I0J-265625D01*
G01*
X147662000Y-81116375D01*
G75*
G02*
X147396375Y-81382000I-265625J0D01*
G01*
X146227625Y-81382000D01*
G75*
G02*
X145962000Y-81116375I0J265625D01*
G01*
X145962000Y-78947625D01*
G75*
G02*
X146227625Y-78682000I265625J0D01*
G01*
G37*
G36*
G01*
X146227625Y-75082000D02*
X147396375Y-75082000D01*
G75*
G02*
X147662000Y-75347625I0J-265625D01*
G01*
X147662000Y-77516375D01*
G75*
G02*
X147396375Y-77782000I-265625J0D01*
G01*
X146227625Y-77782000D01*
G75*
G02*
X145962000Y-77516375I0J265625D01*
G01*
X145962000Y-75347625D01*
G75*
G02*
X146227625Y-75082000I265625J0D01*
G01*
G37*
%TD*%
%TO.C,C9*%
G36*
G01*
X201784000Y-31014750D02*
X201784000Y-31977250D01*
G75*
G02*
X201515250Y-32246000I-268750J0D01*
G01*
X200977750Y-32246000D01*
G75*
G02*
X200709000Y-31977250I0J268750D01*
G01*
X200709000Y-31014750D01*
G75*
G02*
X200977750Y-30746000I268750J0D01*
G01*
X201515250Y-30746000D01*
G75*
G02*
X201784000Y-31014750I0J-268750D01*
G01*
G37*
G36*
G01*
X203659000Y-31014750D02*
X203659000Y-31977250D01*
G75*
G02*
X203390250Y-32246000I-268750J0D01*
G01*
X202852750Y-32246000D01*
G75*
G02*
X202584000Y-31977250I0J268750D01*
G01*
X202584000Y-31014750D01*
G75*
G02*
X202852750Y-30746000I268750J0D01*
G01*
X203390250Y-30746000D01*
G75*
G02*
X203659000Y-31014750I0J-268750D01*
G01*
G37*
%TD*%
%TO.C,C8*%
G36*
G01*
X146330750Y-73044000D02*
X147293250Y-73044000D01*
G75*
G02*
X147562000Y-73312750I0J-268750D01*
G01*
X147562000Y-73850250D01*
G75*
G02*
X147293250Y-74119000I-268750J0D01*
G01*
X146330750Y-74119000D01*
G75*
G02*
X146062000Y-73850250I0J268750D01*
G01*
X146062000Y-73312750D01*
G75*
G02*
X146330750Y-73044000I268750J0D01*
G01*
G37*
G36*
G01*
X146330750Y-71169000D02*
X147293250Y-71169000D01*
G75*
G02*
X147562000Y-71437750I0J-268750D01*
G01*
X147562000Y-71975250D01*
G75*
G02*
X147293250Y-72244000I-268750J0D01*
G01*
X146330750Y-72244000D01*
G75*
G02*
X146062000Y-71975250I0J268750D01*
G01*
X146062000Y-71437750D01*
G75*
G02*
X146330750Y-71169000I268750J0D01*
G01*
G37*
%TD*%
%TO.C,C7*%
G36*
G01*
X177210000Y-31520000D02*
X177210000Y-29440000D01*
G75*
G02*
X177470000Y-29180000I260000J0D01*
G01*
X181450000Y-29180000D01*
G75*
G02*
X181710000Y-29440000I0J-260000D01*
G01*
X181710000Y-31520000D01*
G75*
G02*
X181450000Y-31780000I-260000J0D01*
G01*
X177470000Y-31780000D01*
G75*
G02*
X177210000Y-31520000I0J260000D01*
G01*
G37*
G36*
G01*
X168810000Y-31520000D02*
X168810000Y-29440000D01*
G75*
G02*
X169070000Y-29180000I260000J0D01*
G01*
X173050000Y-29180000D01*
G75*
G02*
X173310000Y-29440000I0J-260000D01*
G01*
X173310000Y-31520000D01*
G75*
G02*
X173050000Y-31780000I-260000J0D01*
G01*
X169070000Y-31780000D01*
G75*
G02*
X168810000Y-31520000I0J260000D01*
G01*
G37*
%TD*%
%TO.C,C6*%
G36*
G01*
X180874750Y-69058500D02*
X181837250Y-69058500D01*
G75*
G02*
X182106000Y-69327250I0J-268750D01*
G01*
X182106000Y-69864750D01*
G75*
G02*
X181837250Y-70133500I-268750J0D01*
G01*
X180874750Y-70133500D01*
G75*
G02*
X180606000Y-69864750I0J268750D01*
G01*
X180606000Y-69327250D01*
G75*
G02*
X180874750Y-69058500I268750J0D01*
G01*
G37*
G36*
G01*
X180874750Y-67183500D02*
X181837250Y-67183500D01*
G75*
G02*
X182106000Y-67452250I0J-268750D01*
G01*
X182106000Y-67989750D01*
G75*
G02*
X181837250Y-68258500I-268750J0D01*
G01*
X180874750Y-68258500D01*
G75*
G02*
X180606000Y-67989750I0J268750D01*
G01*
X180606000Y-67452250D01*
G75*
G02*
X180874750Y-67183500I268750J0D01*
G01*
G37*
%TD*%
%TO.C,C5*%
G36*
G01*
X171931250Y-67926000D02*
X170968750Y-67926000D01*
G75*
G02*
X170700000Y-67657250I0J268750D01*
G01*
X170700000Y-67119750D01*
G75*
G02*
X170968750Y-66851000I268750J0D01*
G01*
X171931250Y-66851000D01*
G75*
G02*
X172200000Y-67119750I0J-268750D01*
G01*
X172200000Y-67657250D01*
G75*
G02*
X171931250Y-67926000I-268750J0D01*
G01*
G37*
G36*
G01*
X171931250Y-69801000D02*
X170968750Y-69801000D01*
G75*
G02*
X170700000Y-69532250I0J268750D01*
G01*
X170700000Y-68994750D01*
G75*
G02*
X170968750Y-68726000I268750J0D01*
G01*
X171931250Y-68726000D01*
G75*
G02*
X172200000Y-68994750I0J-268750D01*
G01*
X172200000Y-69532250D01*
G75*
G02*
X171931250Y-69801000I-268750J0D01*
G01*
G37*
%TD*%
%TO.C,C4*%
G36*
G01*
X171931250Y-71736000D02*
X170968750Y-71736000D01*
G75*
G02*
X170700000Y-71467250I0J268750D01*
G01*
X170700000Y-70929750D01*
G75*
G02*
X170968750Y-70661000I268750J0D01*
G01*
X171931250Y-70661000D01*
G75*
G02*
X172200000Y-70929750I0J-268750D01*
G01*
X172200000Y-71467250D01*
G75*
G02*
X171931250Y-71736000I-268750J0D01*
G01*
G37*
G36*
G01*
X171931250Y-73611000D02*
X170968750Y-73611000D01*
G75*
G02*
X170700000Y-73342250I0J268750D01*
G01*
X170700000Y-72804750D01*
G75*
G02*
X170968750Y-72536000I268750J0D01*
G01*
X171931250Y-72536000D01*
G75*
G02*
X172200000Y-72804750I0J-268750D01*
G01*
X172200000Y-73342250D01*
G75*
G02*
X171931250Y-73611000I-268750J0D01*
G01*
G37*
%TD*%
%TO.C,C3*%
G36*
G01*
X178588750Y-69058500D02*
X179551250Y-69058500D01*
G75*
G02*
X179820000Y-69327250I0J-268750D01*
G01*
X179820000Y-69864750D01*
G75*
G02*
X179551250Y-70133500I-268750J0D01*
G01*
X178588750Y-70133500D01*
G75*
G02*
X178320000Y-69864750I0J268750D01*
G01*
X178320000Y-69327250D01*
G75*
G02*
X178588750Y-69058500I268750J0D01*
G01*
G37*
G36*
G01*
X178588750Y-67183500D02*
X179551250Y-67183500D01*
G75*
G02*
X179820000Y-67452250I0J-268750D01*
G01*
X179820000Y-67989750D01*
G75*
G02*
X179551250Y-68258500I-268750J0D01*
G01*
X178588750Y-68258500D01*
G75*
G02*
X178320000Y-67989750I0J268750D01*
G01*
X178320000Y-67452250D01*
G75*
G02*
X178588750Y-67183500I268750J0D01*
G01*
G37*
%TD*%
%TO.C,C2*%
G36*
G01*
X195647500Y-70077250D02*
X195647500Y-69114750D01*
G75*
G02*
X195916250Y-68846000I268750J0D01*
G01*
X196453750Y-68846000D01*
G75*
G02*
X196722500Y-69114750I0J-268750D01*
G01*
X196722500Y-70077250D01*
G75*
G02*
X196453750Y-70346000I-268750J0D01*
G01*
X195916250Y-70346000D01*
G75*
G02*
X195647500Y-70077250I0J268750D01*
G01*
G37*
G36*
G01*
X193772500Y-70077250D02*
X193772500Y-69114750D01*
G75*
G02*
X194041250Y-68846000I268750J0D01*
G01*
X194578750Y-68846000D01*
G75*
G02*
X194847500Y-69114750I0J-268750D01*
G01*
X194847500Y-70077250D01*
G75*
G02*
X194578750Y-70346000I-268750J0D01*
G01*
X194041250Y-70346000D01*
G75*
G02*
X193772500Y-70077250I0J268750D01*
G01*
G37*
%TD*%
%TO.C,C1*%
G36*
G01*
X181533625Y-77390000D02*
X182702375Y-77390000D01*
G75*
G02*
X182968000Y-77655625I0J-265625D01*
G01*
X182968000Y-79824375D01*
G75*
G02*
X182702375Y-80090000I-265625J0D01*
G01*
X181533625Y-80090000D01*
G75*
G02*
X181268000Y-79824375I0J265625D01*
G01*
X181268000Y-77655625D01*
G75*
G02*
X181533625Y-77390000I265625J0D01*
G01*
G37*
G36*
G01*
X181533625Y-73790000D02*
X182702375Y-73790000D01*
G75*
G02*
X182968000Y-74055625I0J-265625D01*
G01*
X182968000Y-76224375D01*
G75*
G02*
X182702375Y-76490000I-265625J0D01*
G01*
X181533625Y-76490000D01*
G75*
G02*
X181268000Y-76224375I0J265625D01*
G01*
X181268000Y-74055625D01*
G75*
G02*
X181533625Y-73790000I265625J0D01*
G01*
G37*
%TD*%
M02*
